<?xml version="1.0" encoding="utf-8"?>
<!-- Generator: Adobe Illustrator 21.1.0, SVG Export Plug-In . SVG Version: 6.00 Build 0)  -->
<svg version="1.1" id="Layer_1" xmlns="http://www.w3.org/2000/svg" xmlns:xlink="http://www.w3.org/1999/xlink" x="0px" y="0px"
	 viewBox="0 0 1280 1024" style="enable-background:new 0 0 1280 1024;" xml:space="preserve">
<style type="text/css">
	.st0{fill:#8FB8CC;stroke:#193543;stroke-width:18;stroke-miterlimit:10;}
	.st1{display:none;}
	.st2{fill:#8FB8CC;}
	.st3{font-family:'MyriadPro-Regular';}
	.st4{font-size:145.3684px;}
</style>
<g id="Pohja">
	<g id="XMLID_2_">
		<g>
			<circle class="st0" cx="650" cy="515" r="497"/>
		</g>
	</g>
</g>
<g id="CompanyGuys" class="st1">
</g>
<g>
	<g>
		<g id="XMLID_1_">
			<g>
				<path d="M1062.9,718.8c0,8,0,16,0,24c-45.8,19.9-91.6,39.7-138.5,60.1c-0.5-4.9-0.7-8.7-1.4-12.4c-5.2-27.4-10.5-54.8-15.8-82.2
					c-2.4-12.5-5.1-25-6.7-37.7c-0.5-3.8,1.2-8.9,3.7-12c8.1-10.3,8.5-21.8,0-30.2c-7.8-7.7-20.8-8-29-0.7c-9,8.1-9.2,20.5-1.4,30.9
					c2.3,3,3.6,7.6,3.5,11.4c-0.2,6-2,11.9-3.4,19.2c-25.2-21.4-55.2-32-85.2-45.5c10.1-4.9,18.9-8.9,27.4-13.5
					c13-7,22.7-16.7,24.6-32.3c0.6-4.7-0.1-8.4-4-12c-13.7-12.9-20.2-28.9-20-47.8c0.2-21.8,0-43.7,0.1-65.5
					c0.2-28.8,19-47.5,47.6-47.5c26.9,0,53.8,0,80.7,0c7.3,0,15.3,1.2,16.7-9.8c0.2-1.8,5.9-4.8,8.1-4.1c2.7,0.9,5.8,4.8,6.2,7.8
					c0.9,7.1,0.3,14.3,0.3,21.5c0,10.7,0,21.3,0,31.9c0,9.5-3.6,17.4-10.2,24.4c-2.3,2.4-3.9,6.2-4.1,9.4
					c-0.8,15.1-0.2,30.4-1.7,45.4c-1.5,15.7-8.4,29.5-19.7,41c-1.9,1.9-2.9,6-2.4,8.8c1.7,9.8,8,16.9,16.3,21.6
					c11.3,6.4,23.2,11.7,34.9,17.5c10.7,5.3,21.8,9.9,32.1,16c22.1,13.1,35.3,32.6,39.8,58C1061.7,715.9,1062.4,717.3,1062.9,718.8z
					"/>
				<path d="M932.9,283.6c11.7,6.8,12,22.9,0.5,30.1c-0.9,0.6-1.8,1.2-2.7,1.7c-16.5,10.6-17.5,13.1-12.4,32.1
					c3.5,12.9-8.4,25.2-21.5,22.5c-4.7-1-9.4-1.8-12.4-2.3c-11.1-0.1-16.9,5.7-20,13.3c-3.5,8.5-9.5,9.1-17.2,9
					c-7.2-0.1-12.8-1-17.2-8.3c-9.6-16-13.5-16.9-31.6-12.6c-2.8,0.7-6.9,0-9.2-1.8c-9.1-6.9-16.3-14.2-11.8-28
					c3.7-11.3,0-16.4-11.4-23.3c-11.5-6.9-12-27.8-0.9-35.2c14.9-9.9,15.8-13,11.7-30.6c-0.7-3,0.2-7.3,2-9.9
					c6.5-9.1,13.5-16.1,27-12.1c12.6,3.7,17.3,0.3,24.6-11.8c7.7-12.8,25.6-13.4,33.8-1.1c10.5,15.7,14.8,17.2,33.4,12.2
					c10.8-2.9,23.5,9,21.3,19.9c-0.2,1-0.4,2.1-0.6,3.1C914.4,270.4,915.8,273.7,932.9,283.6z M849.9,329
					c16.7-0.1,30.4-13.9,30.4-30.5c0-17-14-30.6-31.2-30.4c-16.8,0.2-30.3,14.1-30,30.8C819.4,315.7,833.2,329.1,849.9,329z"/>
				<path d="M841.2,697c43.2,25.5,57.8,66,56.8,113.7c0,2.3-3.6,5.4-6.2,6.5c-60.3,25.9-120.7,51.6-181.1,77.3
					c-17.1,7.3-34.2,14.8-51.5,21.5c-3.7,1.4-8.9,1.4-12.5-0.1c-77-32.8-154-65.9-230.8-99.2c-2.5-1.1-5.6-4.6-5.6-7
					c-0.3-21.7,2.3-43,10.9-63.2c12.1-28.4,33.7-47.5,60.6-60.9c16.4-8.2,33.5-14.9,50.1-22.7c10.6-5,21.4-9.9,30.8-16.7
					c7.5-5.4,14.4-12.7,19.3-20.7c7.7-12.3,6.4-15.3-3.4-25.9c-18.3-20.1-25.4-44.5-26-71.1c-0.4-16,0.2-31.9-0.3-47.9
					c-0.1-3.4-1.9-7.7-4.4-10c-10.1-9.4-15.7-20.5-15.7-34.5c0.1-24.5,0.1-49,0-73.5c0-7.2,2-12.8,9.6-14.3
					c6.2-1.2,10.8,3.9,12.9,12.3c0.6,2.5,3.2,5.7,5.5,6.4c4.7,1.4,9.9,1.8,14.9,1.8c38.6,0.1,77.2,0,115.8,0.1
					c37.2,0,64.3,26.7,65,64.2c0.3,16.5,0,33,0,49.5c0,14.9-0.1,29.8,0,44.7c0.2,27.1-9.6,49.9-29.3,68.2c-3.9,3.6-5.3,7-4.8,12.4
					c1.5,19,10.3,33.8,26.4,43.2c15.8,9.2,32.7,16.4,49.2,24.4C812.1,682.8,827.3,688.8,841.2,697z M687.6,851.3
					c5.6-2.4,7.2-5.5,6.1-11.5C686,798,678.8,756,671,714.2c-1.4-7.5-0.4-12.9,5-18.7c8.7-9.3,10.6-20.8,5.1-32.6
					c-5.3-11.5-14.9-16.9-27.4-17.6c-12.4,1-22,6.5-26.9,18.2c-4.8,11.6-3.2,22.7,5.9,31.7c5.7,5.6,7.3,11.3,5.8,19.3
					c-8,41.5-15.3,83.2-23,124.7c-1.1,5.6-0.5,9.1,5.4,11.7c11.2,4.9,21.9,15.1,32.8,15.2C665.1,866.1,676.2,856.2,687.6,851.3z"/>
				<path d="M521.7,279.4c1.3,50,0.3,100,0.3,150c0,1.2-0.4,2.4-0.8,4.6c-6.2-5.5-11.7-10.4-17.2-15.3c-16.7-14.5-36.1-22-58.2-23
					c-18.6-0.8-37.4-0.4-55.7-3.2c-52.8-8-93.1-57.7-91.9-111.4c1.3-55.3,42.4-102,96-108.9C461.6,163.5,519.9,211.8,521.7,279.4z"
					/>
				<path d="M490.9,465.9c1,27.1,0.8,54.3,0,81.4c-0.4,15.2-8,28-19.1,38.3c-4.1,3.8-4.9,7.5-4.2,12.7c2,13.1,9.1,22.6,20.2,29.1
					c8.6,5.1,17.8,9.4,27.9,14.6c-28.6,12.5-57.1,23.8-81.5,45.3c-1.4-7.7-3.4-14-3.5-20.3c0-3.4,2.8-7,5-10.1
					c5.6-7.8,5.9-18.6,0.3-26.1c-5.7-7.7-16.1-10.6-25-7s-14.5,12.6-12.7,22.4c0.7,4,2.6,8.4,5.4,11.2c5,4.9,5.1,10.1,3.8,16.1
					c-6.5,31.7-13.1,63.5-19.3,95.3c-2.1,10.6-2.9,21.5-4.5,33.9c-46.5-20-92.7-40-138.8-59.9c0-6.9,0-13.8,0-20.8
					c0.8-3,1.6-6.1,2.2-9.1c5.1-25.8,19.2-45.4,42.2-58.1c12.8-7,26.4-12.5,39.6-18.8c8.4-4,17-7.8,24.6-13
					c5.5-3.8,10.3-9.2,14.1-14.8c4.2-6.2,4.6-12.1-2.2-18.7c-13.8-13.5-18.4-31.4-18.7-50.3c-0.2-11.2,0.2-22.4-0.2-33.5
					c-0.1-2.8-1.5-6.2-3.5-8.1c-7.5-7-11-15.4-10.9-25.6c0-16.5,0-33,0-49.5c0-5.3,0.2-10.8,6.9-11.6c6-0.7,7.4,3.8,9.4,8.6
					c1.2,2.8,6.4,5.2,9.9,5.4c15.9,0.6,31.9,0.3,47.9,0.3c13.6,0,27.1-0.1,40.7,0C470.3,425.3,490,442.7,490.9,465.9z"/>
			</g>
		</g>
	</g>
	<text transform="matrix(1 0 0 1 370.9 336.0347)" class="st2 st3 st4">€</text>
	<g id="XMLID_3_">
		<g>
			<path class="st2" d="M738.6,485.6v35.1l-8,35.1L719.4,575l-17.6,16l-19.2,12.8l-16,3.2H646h-20.8L606,587.8l-14.4-27.2L582,535
				v-28.8v-16l1.6-9.6l3.3-3c20.8,1.6,44.7,3.2,44.7,3.2l41.5-1.6h22.4l39.9-1.6L738.6,485.6z"/>
		</g>
	</g>
	<path d="M625.2,581.4c1.6,4.8,0,8,0,8h9.6v-17.6L638,559l9.6-3.2h11.2h9.6l8,3.2l1.6,12.8v17.6h8v-17.6v-14.4l-9.6-11.2l-12.8-3.2
		h-22.4l-16,14.4v12.8L625.2,581.4L625.2,581.4z"/>
	<g id="XMLID_4_">
		<g>
			<path class="st2" d="M941.5,522.2v21.4l-6.8,19l-10.3,20.2l-13.7,14.3h-14.8h-14.8l-11.4-2.4l-13.7-9.5l-12.6-11.9l-8-14.3
				l-5.7-26.2v-26.2l2.3-5.9l28.5,1.2h16l29.7,1.2c0,0,17.1-1.2,31.9-2.4l2.3,2.5l1.1,7.1V522.2z"/>
			<path class="st2" d="M473.4,505.3v26.2l-5.9,26.2l-8.3,14.3l-13.1,11.9l-14.3,9.5l-11.9,2.4h-15.5H389l-14.3-14.3L364,561.3
				l-7.1-19v-21.4V509l1.2-7.1l2.3-2.5c15.5,1.2,33.3,2.4,33.3,2.4l30.9-1.2h16.7l29.7-1.2L473.4,505.3z"/>
		</g>
	</g>
	<polyline points="877.6,587.8 882.4,592.6 888.8,594.2 899.2,594.3 912,592.7 914.3,587.8 915.9,583 911.1,578.2 906.3,576.6 
		890.4,576.6 880.8,581.4 	"/>
	<path d="M385.5,565.4c3.2,6.4,1.6,4.8,1.6,4.8l3.2,3.2l6.4-3.2l8-1.6h8h8l9.6,3.2l3.2-3.2l1.6-4.8l-4.8-3.2l-9.6-1.6h-8h-8h-8
		l-8,3.2"/>
</g>
<g id="Layer_4" class="st1">
	
		<image style="display:inline;overflow:visible;enable-background:new    ;" width="1781" height="313" xlink:href="D4DC0AAE.png"  transform="matrix(0.2105 0 0 0.2084 15 946.5777)">
	</image>
</g>
</svg>
