<?xml version="1.0" encoding="utf-8"?>
<!-- Generator: Adobe Illustrator 21.1.0, SVG Export Plug-In . SVG Version: 6.00 Build 0)  -->
<svg version="1.1" xmlns="http://www.w3.org/2000/svg" xmlns:xlink="http://www.w3.org/1999/xlink" x="0px" y="0px"
	 viewBox="0 0 1280 1024" style="enable-background:new 0 0 1280 1024;" xml:space="preserve">
<style type="text/css">
	.st0{fill:none;}
</style>
<g id="Pohja">
	<circle class="st0" cx="660.5" cy="512.5" r="501.5"/>
</g>
<g id="Ikoni">
	<g>
		<path d="M555.4,540.8c-36.9,0-72.6,0-108.6,0c0-50.1,0-99.4,0-149.4c35.7,0,71.4,0,108.3,0c0-3.4,0-6,0-8.6
			c0-38.8-0.1-77.6,0-116.4c0.2-43.9,11.2-84.5,38.6-119.5c29.6-37.8,69.8-57.7,116-66.9c39.2-7.8,78.6-5.6,118.1-3.4
			c14.8,0.8,29.5,2.3,45.3,3.6c-1.2,46.8-2.3,93-3.5,140.3c-2.7,0-5,0-7.4,0c-29.5-0.2-58.9-0.5-88.4-0.4c-7.5,0-15.1,0.7-22.4,2.1
			c-22.4,4.4-33.7,16.6-36.5,39.2c-0.8,6.1-1.3,12.3-1.4,18.4c-0.1,35.4-0.1,70.8-0.1,106.2c0,1.3,0.1,2.7,0.2,4.9
			c53.2,0,106.2,0,160.2,0c-2.4,50.2-4.7,99.6-7.1,149.9c-51,0-101.8,0-153.2,0c0,137.1,0,273.3,0,410.1c-53,0-105.3,0-158.4,0
			C555.4,814.6,555.4,678.4,555.4,540.8z"/>
	</g>
</g>
</svg>
