<?xml version="1.0" encoding="utf-8"?>
<!-- Generator: Adobe Illustrator 21.1.0, SVG Export Plug-In . SVG Version: 6.00 Build 0)  -->
<svg version="1.1" id="Layer_1" xmlns="http://www.w3.org/2000/svg" xmlns:xlink="http://www.w3.org/1999/xlink" x="0px" y="0px"
	 viewBox="0 0 612 792" style="enable-background:new 0 0 612 792;" xml:space="preserve">
<style type="text/css">
	.st0{display:none;}
	.st1{display:inline;}
	.st2{fill:#FDFEFE;}
	.st3{fill:#89C9F8;}
	.st4{fill:#397C8F;}
	.st5{fill:#FFFFFF;}
	.st6{fill:none;stroke:#000000;stroke-width:2;}
</style>
<g id="Layer_3" class="st0">
	<g class="st1">
		<path class="st2" d="M230.4,773.9c-36.6,0-73.3,0-109.9,0c0-75,0-150,0-225c36.7,0,73.3,0,109.9,0c-3,2.1-4.1,4.9-4,8.6
			c0.2,8.2,0.1,16.5,0.1,26.3c-7.2-7.3-13.4-13.5-19.6-19.7c-3.8-3.8-7.6-4.4-10.4-1.6c-3.1,3.1-2.7,6.2,1.4,10.4
			c8.6,8.6,17.1,17.3,25.8,25.8c1.9,1.9,2.9,3.8,2.8,6.5c-0.1,13.7,0,27.3-0.1,41c0,1.2,0.6,2.7-1.2,3.6
			c-12.9-7.4-25.8-14.9-38.8-22.3c-2-1.1-2.6-2.7-3.1-4.8c-3.2-12.2-6.5-24.4-9.9-36.5c-1.5-5.6-5.4-7.5-9.5-4.9
			c-3.7,2.3-3.4,5.6-2.4,9.2c2.4,8.6,4.7,17.1,7.2,26.4c-1.6-0.7-2.4-1-3.1-1.4c-7-4.1-14.1-8.3-21.1-12.3c-3.6-2-6.7-1.5-9,2.2
			c-2.4,3.7-0.6,6.3,2.4,8.4c1.6,1.1,3.4,2.1,5.1,3.1c6.1,3.5,12.2,7.1,19.1,11.1c-1.6,0.6-2.2,0.9-2.8,1c-8.3,2.2-16.7,4.3-25,6.7
			c-5.6,1.7-7.3,6.1-4.2,10.2c2.2,2.9,5.3,2.3,8.2,1.6c12-3.2,24.1-6.3,36.1-9.6c2-0.5,3.7-0.9,5.7,0.3
			c13.2,7.7,26.5,15.3,40.2,23.3c-9.8,5.7-19.8,10.3-28.4,16.6c-9.9,7.3-19.4,7.9-30.5,3.6c-7.7-3-15.9-4.6-24-6.6
			c-3.6-0.9-7-0.5-8.3,4s1,6.6,4.7,7.9c2.2,0.8,4.5,1.3,6.7,1.9c6.9,1.9,13.8,3.8,21.7,5.9c-2.9,1.8-4.7,2.9-6.6,4
			c-5.6,3.2-11.4,6.3-16.9,9.7c-4.9,2.9-5.6,6.6-2.4,10.3c2.8,3.2,5.8,2.4,9,0.5c7.5-4.4,15-8.7,23.5-13.6c-2.7,9.8-5,18.2-7.3,26.7
			c-1.5,5.6-0.2,8.8,4.1,10.1c3.7,1.1,6.5-1.1,8-6.7c2-7.4,4.7-14.6,5.8-22.1c1.9-12.1,7.4-20.3,19-25.4
			c9.5-4.1,18.2-10.1,27.7-15.6c0.1,2.2,0.3,3.7,0.3,5.1c0,13.2-0.1,26.3,0.1,39.5c0,3.1-1,5.3-3.2,7.4
			c-8.8,8.6-17.5,17.3-26.2,26.1c-3.5,3.6-3.6,6.7-0.7,9.6c2.6,2.6,6.5,2.3,9.7-0.9c5.7-5.6,11.3-11.3,17-16.9
			c0.8-0.8,1.4-2.4,3.3-1.7c0,8.1,0.1,16.3-0.1,24.5C226.3,769,227.4,771.8,230.4,773.9z"/>
		<path class="st2" d="M235.4,548.9c36.7,0,73.3,0,110,0c0,75,0,150,0,225c-36.7,0-73.3,0-110,0c3.2-2.2,4.1-5.3,4-9.1
			c-0.2-8.1-0.1-16.1-0.1-24.2c7.3,5.7,13.4,12,19.6,18.2c3.8,3.8,7.6,4.3,10.4,1.5c3-3.1,2.7-6.2-1.4-10.4
			c-8.5-8.5-16.9-17-25.5-25.4c-2.2-2.1-3.2-4.3-3.1-7.4c0.2-13.2,0.1-26.3,0.1-39.5c0-1.4-0.5-3,0.5-4.2c0.3-0.1,0.5-0.2,0.6-0.2
			c8.1,4.6,15.9,9.9,24.4,13.6c12.8,5.6,20.3,14.1,21.9,28.3c0.8,7.5,3.7,14.8,5.8,22.1c1,3.4,3,6.1,7.2,5.2
			c3.9-0.8,5.8-4.1,4.8-8.3c-0.5-2.1-1.1-4.2-1.6-6.3c-1.9-7.1-3.7-14.2-5.9-22.3c8.8,5.1,16.5,9.7,24.3,14.1
			c3.6,2.1,6.7,1.3,8.9-2.4c2.1-3.5,0.6-6-2.3-8.1c-1.8-1.3-3.7-2.2-5.5-3.4c-5.9-3.8-12.4-6.5-18.6-11.3c5.2-1.4,9.5-2.6,13.8-3.7
			c4.5-1.2,9-2.2,13.5-3.6c3.7-1.2,6.9-3,5.5-7.8c-1.2-4.3-3.7-5.5-9-4.2c-7.1,1.8-14.5,2.9-21.1,5.8c-13.3,5.8-24.6,3.5-35.9-4.9
			c-7.6-5.6-16.4-9.7-25.1-14.8c13-7.6,25.5-14.6,37.7-22c3.3-2,6.2-2.2,9.8-1.2c11.5,3.2,23.1,6.3,34.6,9.3
			c5.4,1.4,8.3-0.1,9.1-4.7c0.9-5.2-2.9-6.6-6.7-7.7c-8.5-2.4-17.1-4.5-26.7-7.1c3.1-1.9,5.1-3.1,7.1-4.3
			c5.7-3.4,11.5-6.6,17.2-10.1c2.2-1.3,4.1-3.2,3.5-6.1c-0.5-2.4-1.8-4.3-4.2-5.3c-2.6-1.1-4.8,0.2-7,1.4c-7.4,4.3-14.7,8.5-23,13.2
			c2.7-10.1,5.1-19.1,7.4-28c1.2-4.6-0.7-8-4.8-8.7c-4.4-0.8-6.3,1.9-7.3,5.7c-2.8,10.8-6,21.4-8.5,32.3c-1.3,5.6-3.9,9.2-9.1,12
			c-11.7,6.2-23,13.1-34.7,19.8c-0.4-0.9-0.7-1.4-0.7-1.8c0-14.8,0-29.7-0.1-44.5c0-2.4,1.4-3.6,2.8-5c8.8-8.8,17.7-17.7,26.5-26.5
			c3-3,3.9-6.2,0.7-9.6c-2.5-2.7-6.5-2.4-9.7,0.8c-4.6,4.5-9.1,9.2-13.8,13.7c-1.9,1.8-3.3,4.4-6.5,5.4c0-8.6-0.1-16.8,0.1-24.9
			C239.4,553.9,238.3,551.1,235.4,548.9z"/>
		<path class="st3" d="M235.4,548.9c2.9,2.1,4.1,4.9,4,8.6c-0.2,8.2-0.1,16.3-0.1,24.9c3.1-1,4.6-3.6,6.5-5.4
			c4.7-4.5,9.2-9.2,13.8-13.7c3.2-3.1,7.2-3.5,9.7-0.8c3.2,3.4,2.3,6.6-0.7,9.6c-8.8,8.8-17.7,17.7-26.5,26.5
			c-1.4,1.4-2.8,2.7-2.8,5c0.1,14.8,0.1,29.7,0.1,44.5c0,0.4,0.3,0.9,0.7,1.8c11.7-6.7,23-13.6,34.7-19.8c5.2-2.7,7.8-6.3,9.1-12
			c2.5-10.8,5.7-21.5,8.5-32.3c1-3.8,3-6.5,7.3-5.7c4.1,0.7,6,4.1,4.8,8.7c-2.3,9-4.7,17.9-7.4,28c8.3-4.7,15.6-9,23-13.2
			c2.2-1.3,4.4-2.6,7-1.4c2.3,1,3.7,2.9,4.2,5.3c0.6,2.9-1.3,4.8-3.5,6.1c-5.7,3.4-11.5,6.7-17.2,10.1c-2,1.2-4,2.4-7.1,4.3
			c9.7,2.5,18.2,4.7,26.7,7.1c3.7,1.1,7.6,2.5,6.7,7.7c-0.8,4.6-3.7,6.1-9.1,4.7c-11.6-3-23.1-6.1-34.6-9.3c-3.6-1-6.6-0.7-9.8,1.2
			c-12.3,7.3-24.7,14.4-37.7,22c8.7,5.1,17.5,9.2,25.1,14.8c11.4,8.4,22.7,10.7,35.9,4.9c6.6-2.9,14-4,21.1-5.8
			c5.3-1.4,7.8-0.1,9,4.2c1.4,4.9-1.8,6.7-5.5,7.8c-4.4,1.4-9,2.4-13.5,3.6c-4.3,1.1-8.6,2.3-13.8,3.7c6.2,4.8,12.7,7.6,18.6,11.3
			c1.8,1.2,3.8,2.1,5.5,3.4c2.9,2,4.4,4.6,2.3,8.1c-2.2,3.7-5.3,4.4-8.9,2.4c-7.8-4.4-15.5-9-24.3-14.1c2.1,8.1,4,15.2,5.9,22.3
			c0.5,2.1,1.2,4.2,1.6,6.3c1,4.3-0.9,7.5-4.8,8.3c-4.2,0.9-6.2-1.8-7.2-5.2c-2.2-7.3-5-14.6-5.8-22.1c-1.6-14.2-9.1-22.8-21.9-28.3
			c-8.5-3.7-16.3-9-24.4-13.6c-0.1-0.1-0.3,0.1-0.6,0.2c-1,1.2-0.5,2.8-0.5,4.2c0,13.2,0.1,26.3-0.1,39.5c0,3.1,0.9,5.3,3.1,7.4
			c8.6,8.4,17,16.9,25.5,25.4c4.1,4.1,4.5,7.3,1.4,10.4c-2.8,2.8-6.6,2.3-10.4-1.5c-6.2-6.2-12.3-12.5-19.6-18.2
			c0,8.1-0.1,16.1,0.1,24.2c0.1,3.8-0.8,6.9-4,9.1c-1.7,0-3.3,0-5,0c-3-2.1-4.1-4.9-4-8.6c0.2-8.2,0.1-16.3,0.1-24.5
			c-1.9-0.7-2.5,0.9-3.3,1.7c-5.7,5.6-11.3,11.3-17,16.9c-3.2,3.2-7.2,3.4-9.7,0.9c-2.9-2.9-2.8-6.1,0.7-9.6
			c8.6-8.8,17.4-17.5,26.2-26.1c2.2-2.1,3.2-4.3,3.2-7.4c-0.2-13.2-0.1-26.3-0.1-39.5c0-1.4-0.2-2.9-0.3-5.1
			c-9.6,5.5-18.3,11.5-27.7,15.6c-11.6,5-17.1,13.3-19,25.4c-1.2,7.5-3.8,14.8-5.8,22.1c-1.5,5.6-4.3,7.8-8,6.7
			c-4.2-1.3-5.6-4.5-4.1-10.1c2.3-8.5,4.6-16.9,7.3-26.7c-8.5,4.9-16,9.2-23.5,13.6c-3.1,1.8-6.2,2.7-9-0.5
			c-3.2-3.7-2.5-7.3,2.4-10.3c5.5-3.4,11.3-6.4,16.9-9.7c1.9-1.1,3.7-2.2,6.6-4c-7.9-2.2-14.8-4-21.7-5.9c-2.2-0.6-4.5-1.1-6.7-1.9
			c-3.7-1.3-6-3.4-4.7-7.9c1.3-4.6,4.7-4.9,8.3-4c8.1,2,16.3,3.6,24,6.6c11.1,4.3,20.6,3.7,30.5-3.6c8.6-6.4,18.6-11,28.4-16.6
			c-13.8-7.9-27-15.5-40.2-23.3c-2-1.2-3.7-0.8-5.7-0.3c-12,3.2-24.1,6.4-36.1,9.6c-3,0.8-6,1.4-8.2-1.6c-3.1-4.1-1.4-8.6,4.2-10.2
			c8.3-2.5,16.7-4.5,25-6.7c0.6-0.2,1.1-0.4,2.8-1c-6.9-4-13-7.6-19.1-11.1c-1.7-1-3.5-1.9-5.1-3.1c-3-2.1-4.8-4.7-2.4-8.4
			c2.3-3.7,5.4-4.2,9-2.2c7.1,4,14.1,8.2,21.1,12.3c0.7,0.4,1.5,0.7,3.1,1.4c-2.5-9.2-4.8-17.8-7.2-26.4c-1-3.6-1.3-6.9,2.4-9.2
			c4.1-2.6,8-0.6,9.5,4.9c3.4,12.2,6.7,24.3,9.9,36.5c0.5,2,1.2,3.7,3.1,4.8c13,7.4,26,14.9,38.8,22.3c1.8-0.9,1.2-2.4,1.2-3.6
			c0-13.7,0-27.3,0.1-41c0-2.8-0.9-4.7-2.8-6.5c-8.7-8.5-17.3-17.1-25.8-25.8c-4.1-4.1-4.5-7.3-1.4-10.4c2.8-2.8,6.6-2.3,10.4,1.6
			c6.2,6.2,12.3,12.4,19.6,19.7c0-9.8,0.1-18-0.1-26.3c-0.1-3.6,1-6.5,4-8.6C232,548.9,233.7,548.9,235.4,548.9z"/>
	</g>
</g>
<g id="Layer_1_1_" class="st0">
	<g class="st1">
		<path d="M265.9,287.6c0.3,0.3,0.6,0.6,1,1c2.5,2.4,3.7,4.8,3.7,8.4c-0.2,17.6-0.1,35.2-0.1,52.8c0,1.5,0.8,3.5-1.6,4.7
			c-16.6-9.5-33.3-19.2-50-28.7c-2.5-1.4-3.3-3.5-4-6.1c-0.2-0.6-0.3-1.2-0.5-1.8c-0.6,0.7-1.2,1.4-1.8,2.2
			c-3.3,6.7-6.8,13.2-10.6,19.6c0.5-0.1,1-0.3,1.5-0.4c2.5-0.7,4.8-1.1,7.3,0.4c17,9.9,34.1,19.7,51.8,30
			c-12.7,7.3-25.5,13.2-36.6,21.4c-10.1,7.5-20,9.5-30.8,7.2c0.7,2.8,3.8,6,5.1,8.4c1.8,3.1,3.1,6.4,4.9,9.5
			c2.1,3.5,4.8,6.6,7.5,9.6c3.8-9.7,10.5-16.7,21.5-21.5c12.2-5.3,23.4-13.1,35.7-20.1c0.2,2.9,0.4,4.7,0.4,6.6
			c0,16.9-0.1,33.9,0.1,50.8c0.1,4-1.3,6.8-4.1,9.5c-0.1,0.1-0.2,0.2-0.3,0.3c0.1,0,0.2,0,0.3,0h9V287.5
			C272.3,287.6,269.1,287.6,265.9,287.6z"/>
		<path d="M327.3,388.5c-9.8-7.2-21.1-12.5-32.3-19.1c16.8-9.7,32.8-18.8,48.6-28.3c4.2-2.5,8-2.9,12.7-1.6c1.1,0.3,2.3,0.6,3.4,0.9
			c-1.7-3.1-3.2-6.3-4.6-9.6c-3.6-5.9-6.2-12.3-10.6-17.6c0,0.2-0.1,0.4-0.1,0.6c-1.7,7.2-5,11.9-11.7,15.4
			c-15.1,8-29.7,16.9-44.7,25.5c-0.5-1.2-0.9-1.8-0.9-2.3c-0.1-19.1,0-38.2-0.1-57.3c0-3,1.8-4.7,3.6-6.5c0.2-0.2,0.5-0.5,0.7-0.7
			c-1.9-0.3-3.7-0.6-5.6-0.9c-1.2,0.1-2.5,0.2-3.8,0.2V451h9.3c-0.1-0.1-0.2-0.2-0.3-0.3c-2.8-2.8-4.1-5.5-4-9.5
			c0.2-17,0.1-33.9,0.1-50.9c0-1.8-0.6-3.8,0.7-5.4c0.3-0.1,0.6-0.3,0.7-0.2c10.4,5.9,20.5,12.8,31.4,17.5
			c12.1,5.3,20.5,12.6,24.9,23.4c3.6-3.2,6-8.1,8.2-12.2c2.8-5.2,5.5-10.6,9.3-15.1C349.8,400.5,338.6,396.8,327.3,388.5z"/>
		<path d="M327.3,388.5c-9.8-7.2-21.1-12.5-32.3-19.1c16.8-9.7,32.8-18.8,48.6-28.3c4.2-2.5,8-2.9,12.7-1.6c1.1,0.3,2.3,0.6,3.4,0.9
			c-1.7-3.1-3.2-6.3-4.6-9.6c-3.6-5.9-6.2-12.3-10.6-17.6c0,0.2-0.1,0.4-0.1,0.6c-1.7,7.2-5,11.9-11.7,15.4
			c-15.1,8-29.7,16.9-44.7,25.5c-0.5-1.2-0.9-1.8-0.9-2.3c-0.1-19.1,0-38.2-0.1-57.3c0-3,1.8-4.7,3.6-6.5c0.2-0.2,0.5-0.5,0.7-0.7
			c-1.9-0.3-3.7-0.6-5.5-0.9c-6.6,0.5-13.2,0.5-19.8,0.6c0.3,0.3,0.6,0.6,1,1c2.5,2.4,3.7,4.8,3.7,8.4c-0.2,17.6-0.1,35.2-0.1,52.8
			c0,1.5,0.8,3.5-1.6,4.7c-16.6-9.5-33.3-19.2-50-28.7c-2.5-1.4-3.3-3.5-4-6.1c-0.2-0.6-0.3-1.2-0.5-1.8c-0.6,0.7-1.2,1.4-1.8,2.2
			c-3.3,6.7-6.8,13.2-10.6,19.6c0.5-0.1,1-0.3,1.5-0.4c2.5-0.7,4.8-1.1,7.3,0.4c17,9.9,34.1,19.7,51.8,30
			c-12.7,7.3-25.5,13.2-36.6,21.4c-3.2,2.4-6.3,4.2-9.5,5.5c-6.9,2.9-13.9,3.3-21.3,1.8c0.7,2.8,3.8,6,5.1,8.4
			c1.8,3.1,3.1,6.4,4.9,9.5c2.1,3.5,4.8,6.6,7.5,9.6c2.4-6.2,6-11.3,11.3-15.5c2.9-2.3,6.3-4.3,10.3-6.1
			c12.2-5.3,23.4-13.1,35.7-20.1c0.2,2.9,0.4,4.7,0.4,6.6c0,16.9-0.1,33.9,0.1,50.8c0.1,4-1.3,6.8-4.1,9.5c-0.1,0.1-0.2,0.2-0.3,0.3
			c0.1,0,0.2,0,0.3,0h24.8c-0.1-0.1-0.2-0.2-0.3-0.3c-2.8-2.8-4.1-5.5-4-9.5c0.2-17,0.1-33.9,0.1-50.9c0-1.8-0.6-3.8,0.7-5.4
			c0.3-0.1,0.6-0.3,0.7-0.2c10.4,5.9,23.6,13.1,34,19c7.1,4,15.7,11.2,19.9,13.6c3.3,1.9,0.7,4.1,2.4,8.4c3.6-3.2,6-8.1,8.2-12.2
			c2.8-5.2,5.5-10.6,9.3-15.1C349.8,400.5,338.6,396.8,327.3,388.5z"/>
	</g>
</g>
<g id="Layer_2" class="st0">
	<g class="st1">
		<path d="M215.9,417.8c8.3-3.6,16.5-7.6,24.9-10.8c8.4-3.2,17.2,4,16.8,13c-0.1,1.3,0.3,2.8,1,3.9c3.1,5.1,6.4,10.1,9.7,15.1
			c0.6,1,1.7,1.8,2.8,2.3c8.8,3.4,11.5,14.5,4.8,21c-6.3,6.1-13,11.7-19.7,17.4c-2.8,2.4-6.3,2.4-9,0.3c-2.8-2.1-3.8-5.5-2.4-8.9
			c2-4.8,4.1-9.5,6.2-14.2c0.8-1.8,0.8-3.2-0.3-4.9c-4-5.9-7.8-12-11.6-18.1c-1-1.6-2.1-2.1-3.9-2.1c-5.3,0-10.6,0-15.9-0.2
			c-3.6-0.1-6.2-2.5-6.9-5.9C211.7,422.7,213.1,419.7,215.9,417.8z M239.2,420.7c0.7,1.1,1.3,2,2.1,3.2c2.3-3,3.7-1.4,4.9,0.9
			c1.1-0.7,2-1.3,3-1.9c-0.6-1.1-1.1-2.1-1.7-3.1c1-0.7,1.8-1.4,2.7-2.1c-0.7-1-1.2-1.9-1.9-2.9c-1.1,0.6-2.1,1.2-3,1.7
			c-0.8-1.1-1.4-2-2-2.8c-1.1,0.7-2,1.3-2.9,1.9c0.6,1.1,1.1,2,1.7,3C241,419.4,240.1,420,239.2,420.7z M267.5,459.7
			c0.9,1.2,2.2,1.4,3.6,0.6c1.3-0.8,1.7-2.7,0.7-3.9c-1-1.3-2.3-1.6-3.7-0.8C266.8,456.4,266.6,458.2,267.5,459.7z M273,452.5
			c1.1-0.9,1.4-2.2,0.6-3.6c-0.7-1.4-2.5-1.7-3.8-0.8c-1.4,1-1.6,2.3-0.8,3.7C269.7,453.1,271.6,453.4,273,452.5z M265.8,447
			c-0.9-1.1-2.1-1.5-3.5-0.7c-1.3,0.7-1.7,2.5-0.8,3.8c0.9,1.4,2.2,1.6,3.6,0.9C266.4,450.3,266.8,448.5,265.8,447z M264.2,454.9
			c-1-1.3-2.2-1.7-3.6-0.9c-1.4,0.7-1.8,2.5-1,3.8s2.6,1.7,3.8,0.8C264.8,457.6,265,456.4,264.2,454.9z"/>
	</g>
	<g class="st1">
		<path d="M353.4,306.8c-1.3,9-2.2,18-3.9,26.9c-1.7,8.8-12.4,12.6-19.9,7.5c-1-0.7-2.5-1.2-3.8-1.2c-6,0-11.9,0.1-17.9,0.3
			c-1.1,0-2.5,0.5-3.4,1.2c-7.5,5.7-18.4,2.2-20.4-7c-1.9-8.6-3.1-17.2-4.5-25.9c-0.6-3.6,1.3-6.6,4.4-7.8c3.2-1.3,6.7-0.3,8.8,2.7
			c3,4.2,5.9,8.5,8.8,12.8c1.1,1.6,2.3,2.4,4.3,2.3c7.1-0.3,14.3-0.4,21.5-0.4c1.9,0,2.9-0.7,3.9-2.2c2.7-4.5,5.6-9,8.5-13.4
			c2-3,5.4-3.9,8.6-2.8C351.4,300.7,353.3,303.5,353.4,306.8z M338.7,325.2c-1.3,0-2.4,0-3.8,0.1c1.4,3.6-0.8,3.9-3.4,3.7
			c0,1.3,0,2.3,0.1,3.5c1.2,0.1,2.4,0.1,3.5,0.2c0.1,1.2,0.2,2.3,0.3,3.4c1.2,0,2.3,0,3.5-0.1c0-1.2,0.1-2.4,0.1-3.5
			c1.3-0.1,2.4-0.2,3.4-0.2c0-1.3,0-2.4-0.1-3.5c-1.2-0.1-2.3-0.1-3.4-0.2C338.9,327.4,338.8,326.3,338.7,325.2z M290.6,328.8
			c-1.5,0.1-2.4,1.1-2.4,2.7c0,1.5,1.4,2.8,2.9,2.6c1.6-0.2,2.5-1.1,2.6-2.7C293.8,329.9,292.4,328.7,290.6,328.8z M293.9,337.2
			c0.2,1.4,1.1,2.3,2.7,2.4c1.5,0.1,2.8-1.2,2.7-2.8c-0.1-1.7-1.1-2.5-2.7-2.6C295.1,334.1,293.8,335.6,293.9,337.2z M302.3,334
			c1.4-0.2,2.4-1,2.4-2.7c0.1-1.5-1.3-2.8-2.8-2.7c-1.7,0.1-2.5,1.1-2.6,2.7C299.2,332.7,300.6,334,302.3,334z M296.4,328.5
			c1.6-0.1,2.6-1,2.7-2.6c0.1-1.5-1.2-2.8-2.7-2.8s-2.8,1.4-2.7,2.9C293.8,327.5,294.8,328.4,296.4,328.5z"/>
	</g>
	<g class="st1">
		<path d="M254,322.8c7,5.7,14.3,11.2,21,17.2s4.3,17.1-3.9,20.9c-1.2,0.5-2.3,1.6-3,2.7c-3.1,5.1-6.1,10.3-9,15.5
			c-0.6,1-0.9,2.4-0.7,3.5c1,9.3-7.6,16.9-16.5,13.8c-8.3-2.8-16.4-6.2-24.5-9.5c-3.4-1.4-5-4.5-4.4-7.8c0.6-3.4,3.1-5.9,6.8-6.2
			c5.1-0.4,10.3-0.7,15.4-0.9c1.9-0.1,3.2-0.7,4.2-2.5c3.5-6.3,7.1-12.4,10.7-18.6c1-1.6,0.9-2.8,0.1-4.5c-2.5-4.7-4.9-9.4-7.1-14.3
			c-1.5-3.2-0.6-6.6,2.1-8.8C247.7,321.3,251.1,321.1,254,322.8z M262.2,344.8c-0.7,1.1-1.2,2.1-1.9,3.3c3.8,0.7,2.9,2.7,1.4,4.8
			c1.1,0.6,2,1.2,3,1.8c0.7-1,1.3-2,2-2.9c1.1,0.5,2.1,1,3.1,1.5c0.6-1,1.1-2,1.7-3c-1-0.7-2-1.3-2.9-1.9c0.6-1.2,1.1-2.1,1.6-3.1
			c-1.1-0.7-2.1-1.2-3-1.7c-0.7,1-1.3,1.9-1.9,2.9C264.1,345.8,263.2,345.3,262.2,344.8z M240.4,387.9c-0.6,1.3-0.3,2.6,1.1,3.5
			c1.3,0.8,3.1,0.3,3.8-1.1c0.7-1.5,0.4-2.8-1-3.6C243,385.7,241.3,386.3,240.4,387.9z M249.3,389.4c1.3,0.5,2.6,0.3,3.5-1.1
			c0.9-1.3,0.4-3-1-3.8c-1.5-0.8-2.7-0.4-3.6,0.9C247.3,386.7,247.9,388.6,249.3,389.4z M250.9,380.5c0.5-1.3,0.3-2.6-1-3.5
			c-1.3-0.8-3.1-0.4-3.8,1c-0.8,1.5-0.4,2.7,0.9,3.6C248.2,382.6,250.1,382,250.9,380.5z M243.1,382.7c0.7-1.5,0.5-2.7-0.9-3.6
			c-1.3-0.9-3-0.4-3.8,0.9s-0.3,3.1,1.1,3.8C241,384.4,242.2,384.1,243.1,382.7z"/>
	</g>
</g>
<g id="Layer_6" class="st0">
	<path class="st1" d="M314.8,478.4c-1.2-8.7-2.3-17.4-4-26c-1.8-9.2-12.7-12.9-20.3-7.4c-0.9,0.7-2.2,1.1-3.4,1.1
		c-6,0.1-11.9,0.1-17.9,0c-1.3,0-2.7-0.5-3.8-1.2c-7.3-5.2-18.1-1.7-20,7.1c-1.9,8.9-3,17.9-4.4,26.8c0,3.3,1.9,6.2,4.9,7.3
		c3.2,1.2,6.6,0.3,8.6-2.6c3-4.3,4.5-9.2,7-13.9c0.8-1.5,3.9-1.8,5.8-0.9c1.5,0.7,4.1,30.1,10.7,30.4c6.2,0.3,8.4-28.1,10.3-30.1
		c1.4-1.5,5.4-1.5,6.4,0.2c2.8,4.3,3.9,9.8,6.9,14.1c2.1,3,5.5,4.1,8.7,2.8C313.4,484.9,315.3,482,314.8,478.4z M263.3,457
		c0,0.4-2.4,0.4-3.2,0.5c-0.5,0-0.1,1.6-0.3,3.2c-1.4,0-2.5,0-3.8,0c-0.1-1.1-0.1-2.2-0.2-3.5c-1.1-0.1-2.2-0.1-3.4-0.2
		c0-1.1,0-2.2,0-3.5c1,0,2.1-0.1,3.4-0.2c0.1-1.1,0.1-2.2,0.2-3.5c1.2,0,2.3,0,3.5,0c0.1,1.1,0.2,2.2,0.3,3.4
		c1.2,0.1,2.3,0.2,3.5,0.3C263.3,454.7,263.3,455.8,263.3,457z M278,470.8c-2.6,0-4.8-2.2-4.8-4.8s2.2-4.8,4.8-4.8s4.8,2.2,4.8,4.8
		S280.6,470.8,278,470.8z M292.9,457.9c-1.5,0-2.9-1.2-2.8-2.8c0.1-1.6,1.1-2.5,2.5-2.6c1.7,0,3.1,1.3,3,2.8
		C295.4,456.9,294.5,457.9,292.9,457.9z M298.3,463.6c-1.5,0-2.8-1.3-2.6-2.9c0.1-1.6,1.1-2.5,2.7-2.6c1.6,0.1,2.6,1,2.7,2.6
		C301.2,462.2,299.8,463.6,298.3,463.6z M298.3,452.4c-1.6-0.1-2.6-1-2.6-2.7c-0.1-1.6,1.2-2.9,2.7-2.8c1.6,0.1,2.5,1.1,2.7,2.5
		C301.1,451.1,299.8,452.5,298.3,452.4z M304.2,457.9c-1.7,0.1-3.1-1.2-3.1-2.7c0.1-1.6,1-2.6,2.6-2.7c1.5-0.1,2.9,1.2,2.9,2.7
		C306.5,456.8,305.7,457.8,304.2,457.9z"/>
	<path class="st1" d="M241.1,260.7c1.2,8.7,2.3,17.4,4,26c1.8,9.2,12.7,12.9,20.3,7.4c0.9-0.7,2.2-1.1,3.4-1.1
		c6-0.1,11.9-0.1,17.9,0c1.3,0,2.7,0.5,3.8,1.2c7.3,5.2,18.1,1.7,20-7.1c1.9-8.9,3-17.9,4.4-26.8c0-3.3-1.9-6.2-4.9-7.3
		c-3.2-1.2-6.6-0.3-8.6,2.6c-3,4.3-4.5,9.2-7,13.9c-0.8,1.5-3.9,1.8-5.8,0.9c-1.5-0.7-4.1-30.1-10.7-30.4
		c-6.2-0.3-8.4,28.1-10.3,30.1c-1.4,1.5-5.4,1.5-6.4-0.2c-2.8-4.3-3.9-9.8-6.9-14.1c-2.1-3-5.5-4.1-8.7-2.8
		C242.5,254.1,240.6,257,241.1,260.7z M292.7,282c0-0.4,2.4-0.4,3.2-0.5c0.5,0,0.1-1.6,0.3-3.2c1.4,0,2.5,0,3.8,0
		c0.1,1.1,0.1,2.2,0.2,3.5c1.1,0.1,2.2,0.1,3.4,0.2c0,1.1,0,2.2,0,3.5c-1,0-2.1,0.1-3.4,0.2c-0.1,1.1-0.1,2.2-0.2,3.5
		c-1.2,0-2.3,0-3.5,0c-0.1-1.1-0.2-2.2-0.3-3.4c-1.2-0.1-2.3-0.2-3.5-0.3C292.7,284.3,292.7,283.3,292.7,282z M278,268.3
		c2.6,0,4.8,2.2,4.8,4.8s-2.2,4.8-4.8,4.8s-4.8-2.2-4.8-4.8S275.3,268.3,278,268.3z M263.1,281.1c1.5,0,2.9,1.2,2.8,2.8
		c-0.1,1.6-1.1,2.5-2.5,2.6c-1.7,0-3.1-1.3-3-2.8C260.5,282.1,261.4,281.1,263.1,281.1z M257.6,275.5c1.5,0,2.8,1.3,2.6,2.9
		c-0.1,1.6-1.1,2.5-2.7,2.6c-1.6-0.1-2.6-1-2.7-2.6C254.8,276.8,256.1,275.4,257.6,275.5z M257.7,286.6c1.6,0.1,2.6,1,2.6,2.7
		c0.1,1.6-1.2,2.9-2.7,2.8c-1.6-0.1-2.5-1.1-2.7-2.5C254.8,287.9,256.2,286.5,257.7,286.6z M251.8,281.1c1.7-0.1,3.1,1.2,3.1,2.7
		c-0.1,1.6-1,2.6-2.6,2.7c-1.5,0.1-2.9-1.2-2.9-2.7C249.4,282.2,250.3,281.2,251.8,281.1z"/>
	<path class="st1" d="M166.2,342.7c7.8,4,15.5,8.1,23.5,11.7c8.6,3.8,17.9-2.9,17.7-12.3c0-1.1,0.4-2.5,1.1-3.4
		c3.4-4.9,6.8-9.8,10.4-14.6c0.8-1,2-2,3.2-2.4c8.5-2.9,11.8-13.8,5.7-20.4s-12.9-12.7-19.4-19.1c-2.8-1.9-6.1-2-8.8-0.2
		c-2.8,1.9-4.1,5.2-2.8,8.6c1.8,5,4.9,9,7.3,13.7c0.8,1.6-0.7,4.2-2.6,5.2c-1.4,0.8-26.9-14.1-31-8.9c-3.8,4.9,18.1,23.1,18.6,25.7
		c0.4,2-1.9,5.2-3.8,5.1c-5.2-0.2-10.3-2.5-15.5-2.5c-3.7,0-6.5,2.2-7.4,5.5C161.6,337.8,162.9,341,166.2,342.7z M213.3,312.9
		c-0.3-0.3,1.1-2.2,1.5-2.9c0.3-0.5-1.2-1-2.4-2.1c0.8-1.2,1.4-2,2.2-3.1c1,0.6,1.9,1.2,2.9,1.9c0.7-0.9,1.4-1.7,2.2-2.7
		c0.9,0.6,1.8,1.3,2.9,2c-0.5,0.9-1.1,1.8-1.9,2.9c0.9,0.7,1.8,1.4,2.8,2.2c-0.7,1-1.3,1.8-2,2.8c-1-0.6-1.9-1.1-3-1.8
		c-0.8,0.9-1.5,1.8-2.3,2.7C215.2,314.3,214.4,313.7,213.3,312.9z M193.6,317c1.5-2.1,4.5-2.7,6.7-1.1c2.1,1.5,2.7,4.5,1.1,6.7
		c-1.5,2.1-4.5,2.7-6.7,1.1C192.6,322.1,192.1,319.1,193.6,317z M195.5,336.6c0.9-1.3,2.7-1.6,3.9-0.7c1.3,1,1.4,2.3,0.7,3.5
		c-1,1.4-2.8,1.8-4,0.8C194.9,339.2,194.6,338,195.5,336.6z M187.8,337.8c0.9-1.2,2.7-1.5,3.9-0.5c1.3,1,1.4,2.3,0.5,3.7
		c-1,1.2-2.3,1.5-3.7,0.7C187.2,340.8,186.9,339,187.8,337.8z M196.9,344.2c1-1.2,2.3-1.5,3.7-0.6c1.3,0.9,1.7,2.6,0.7,3.8
		c-1,1.2-2.3,1.4-3.6,0.8C196.3,347.2,195.9,345.3,196.9,344.2z M189,345.8c1-1.5,2.8-1.9,4-0.9c1.3,1,1.5,2.3,0.7,3.7
		c-0.8,1.3-2.7,1.7-3.9,0.8C188.5,348.4,188.2,347.1,189,345.8z"/>
	<path class="st1" d="M395.5,395.8c-7.9-3.7-15.8-7.6-23.9-10.9c-8.7-3.5-17.8,3.5-17.3,12.9c0.1,1.1-0.3,2.5-0.9,3.4
		c-3.2,5.1-6.4,10.1-9.8,15c-0.7,1.1-1.9,2-3.1,2.5c-8.4,3.3-11.3,14.2-5,20.6c6.4,6.4,13.3,12.3,20,18.4c2.8,1.8,6.2,1.8,8.8-0.1
		c2.7-2,3.9-5.3,2.5-8.7c-2-4.9-5.2-8.8-7.8-13.4c-0.8-1.5,0.6-4.3,2.4-5.3c1.4-0.8,27.4,13.1,31.3,7.7c3.6-5-18.9-22.4-19.6-25.1
		c-0.5-2,1.7-5.3,3.7-5.3c5.2,0.1,10.4,2.1,15.5,2c3.7-0.1,6.4-2.4,7.1-5.8C400.2,400.5,398.8,397.3,395.5,395.8z M349.4,427.2
		c0.3,0.3-1,2.3-1.4,2.9c-0.3,0.5,1.2,0.9,2.5,2c-0.8,1.2-1.4,2.1-2.1,3.2c-1-0.6-1.9-1.1-3-1.7c-0.7,0.9-1.3,1.8-2.1,2.7
		c-0.9-0.6-1.8-1.2-2.9-1.9c0.5-0.9,1.1-1.8,1.7-3c-0.9-0.7-1.8-1.3-2.8-2.1c0.7-1,1.2-1.9,1.9-2.9c1,0.6,1.9,1.1,3,1.7
		c0.7-0.9,1.4-1.9,2.1-2.8C347.5,425.9,348.4,426.5,349.4,427.2z M368.9,422.4c-1.4,2.2-4.4,2.8-6.6,1.4s-2.8-4.4-1.4-6.6
		s4.4-2.8,6.6-1.4C369.8,417.3,370.4,420.2,368.9,422.4z M366.4,402.9c-0.8,1.3-2.6,1.7-3.8,0.8c-1.3-1-1.5-2.3-0.8-3.5
		c0.9-1.5,2.8-1.9,4-1C366.9,400.3,367.2,401.5,366.4,402.9z M374.1,401.5c-0.8,1.3-2.6,1.6-3.8,0.6c-1.3-1-1.5-2.3-0.7-3.7
		c1-1.3,2.3-1.6,3.7-0.8C374.5,398.4,374.9,400.2,374.1,401.5z M364.7,395.4c-1,1.2-2.3,1.6-3.7,0.7c-1.4-0.8-1.8-2.6-0.8-3.8
		c1-1.3,2.3-1.5,3.5-0.9C365.2,392.3,365.6,394.2,364.7,395.4z M372.6,393.5c-0.9,1.5-2.7,2-3.9,1.1c-1.3-1-1.6-2.3-0.8-3.7
		c0.7-1.4,2.6-1.8,3.8-0.9C373,390.9,373.3,392.2,372.6,393.5z"/>
	<path class="st1" d="M199.2,457.7c6.9-5.4,13.9-10.7,20.5-16.5c7-6.2,4.8-17.4-3.8-21.2c-1-0.5-2.1-1.4-2.6-2.4
		c-3.1-5.1-6.1-10.3-9-15.5c-0.6-1.1-0.9-2.6-0.8-3.9c0.9-9-7.6-16.5-16.1-13.8c-8.6,2.8-17,6.4-25.4,9.6c-2.9,1.7-4.4,4.7-3.9,7.9
		c0.5,3.4,3,5.9,6.6,6.2c5.3,0.5,10.2-0.7,15.5-0.9c1.7-0.1,3.5,2.4,3.7,4.5c0.1,1.6-24,18.6-21,24.5c2.8,5.5,28.5-6.8,31.2-6.2
		c2,0.5,4,3.9,3.1,5.6c-2.4,4.6-6.5,8.3-8.8,13c-1.6,3.3-0.8,6.8,1.9,9C192.8,459.7,196.3,459.9,199.2,457.7z M191.9,402.4
		c-0.4,0.2-1.6-1.9-2-2.5c-0.3-0.4-1.4,0.7-2.9,1.4c-0.7-1.2-1.2-2.1-1.9-3.3c1-0.6,1.9-1.2,2.9-1.9c-0.5-1-1-2-1.5-3.1
		c1-0.6,1.9-1.1,3-1.7c0.6,0.9,1.1,1.8,1.9,2.9c1-0.5,2-1,3.1-1.6c0.6,1,1.1,1.9,1.7,3c-0.9,0.6-1.8,1.3-2.8,1.9
		c0.5,1.1,1,2.1,1.6,3.2C193.9,401.2,193,401.7,191.9,402.4z M187.3,422c-1.3-2.3-0.5-5.2,1.7-6.5c2.3-1.3,5.2-0.5,6.5,1.7
		c1.3,2.3,0.5,5.2-1.7,6.5S188.7,424.2,187.3,422z M205.9,428.4c-0.8-1.3-0.3-3.1,1-3.8c1.5-0.7,2.7-0.3,3.5,0.8
		c0.9,1.5,0.4,3.3-0.9,4C208.1,430.1,206.8,429.9,205.9,428.4z M203.7,436c-0.7-1.3-0.2-3.1,1.2-3.7c1.5-0.7,2.7-0.3,3.6,1.1
		c0.7,1.5,0.4,2.7-0.9,3.6C206.3,437.8,204.5,437.3,203.7,436z M213.4,430.4c-0.7-1.4-0.4-2.7,1-3.6c1.3-0.8,3.1-0.4,3.8,1
		s0.3,2.7-0.8,3.5C215.9,432.2,214,431.7,213.4,430.4z M211.6,438.2c-0.9-1.5-0.5-3.3,0.8-4c1.5-0.8,2.7-0.4,3.7,0.9
		c0.9,1.3,0.4,3.1-0.9,3.8C213.7,439.7,212.4,439.4,211.6,438.2z"/>
	<path class="st1" d="M355.1,282.4c-6.6,5.8-13.2,11.5-19.5,17.7c-6.7,6.6-3.8,17.7,5,21c1.1,0.4,2.1,1.3,2.8,2.2
		c3.4,4.9,6.7,9.9,9.9,15c0.7,1.1,1.1,2.6,1.1,3.8c-0.4,9,8.6,16.1,16.9,12.8c8.4-3.3,16.6-7.4,24.8-11.1c2.8-1.9,4.1-4.9,3.4-8.1
		c-0.7-3.3-3.4-5.7-6.9-5.8c-5.3-0.1-10.1,1.3-15.4,1.8c-1.7,0.2-3.7-2.2-3.9-4.3c-0.2-1.6,22.9-19.9,19.5-25.6
		c-3.1-5.3-28.1,8.5-30.8,8c-2-0.4-4.2-3.7-3.4-5.4c2.1-4.7,6-8.7,8-13.5c1.4-3.4,0.4-6.8-2.5-8.9C361.3,280,357.9,280,355.1,282.4z
		 M365.7,337.2c0.4-0.2,1.7,1.8,2.1,2.4c0.3,0.4,1.4-0.8,2.8-1.5c0.8,1.2,1.4,2.1,2.1,3.2c-0.9,0.7-1.8,1.3-2.8,2.1
		c0.6,1,1.1,1.9,1.7,3c-0.9,0.6-1.8,1.2-2.9,1.9c-0.6-0.8-1.2-1.7-2-2.8c-1,0.6-1.9,1.1-3,1.8c-0.7-1-1.2-1.9-1.9-2.9
		c0.9-0.7,1.8-1.4,2.7-2.1c-0.6-1-1.1-2-1.7-3.1C363.7,338.4,364.6,337.9,365.7,337.2z M369.1,317.4c1.4,2.2,0.8,5.2-1.4,6.6
		c-2.2,1.4-5.2,0.8-6.6-1.4c-1.4-2.2-0.8-5.2,1.4-6.6C364.6,314.5,367.6,315.2,369.1,317.4z M350.1,312c0.9,1.3,0.5,3.1-0.8,3.8
		c-1.4,0.8-2.7,0.4-3.6-0.6c-1-1.4-0.6-3.3,0.7-4C347.9,310.4,349.2,310.6,350.1,312z M351.8,304.3c0.8,1.3,0.4,3-0.9,3.8
		c-1.4,0.8-2.7,0.4-3.6-0.9c-0.8-1.4-0.6-2.7,0.7-3.7C349.2,302.7,351,303.1,351.8,304.3z M342.5,310.5c0.7,1.4,0.6,2.7-0.8,3.7
		c-1.3,0.9-3.1,0.6-3.8-0.8c-0.8-1.4-0.5-2.7,0.6-3.6C339.9,308.9,341.9,309.2,342.5,310.5z M343.9,302.5c1,1.4,0.7,3.3-0.6,4
		c-1.4,0.8-2.7,0.5-3.7-0.7s-0.6-3.1,0.7-3.9C341.7,301.2,343,301.4,343.9,302.5z"/>
</g>
<g id="värit" class="st0">
	
		<image style="display:inline;overflow:visible;enable-background:new    ;" width="1779" height="313" xlink:href="../B56A1C1C.png"  transform="matrix(0.2681 0 0 0.2652 42.5016 750.5045)">
	</image>
</g>
<g id="tausta">
	<circle class="st4" cx="306" cy="373" r="285"/>
</g>
<g id="Hile">
	<g>
		<g>
			<path class="st5" d="M546,426.5l-48.2-22.6l-32.9,26l-2.4,6.7l-33.1-9.4l-4.1-2.5l-16.9-11.2l-14.2-12.2l-24.9-13.5l-27.8-11.9
				l14-9.4l87.2-47.3l8.7-4.3l5.9-4.4l3.6,0.7l0.1,3.8l2.8,2.3l32.9,23.5l51-20.2l9.7-16.8l-16.6-13.1l-31.4,4.5l-5.3-8l35.6-50.8
				L478.3,254l-5.3-12.5l12.3-28.9l-2.5-16.7l-17.4,1.6l-39.2,35.8l10.1,38.9l-0.6,3.1l-8,16l-2.8,0.8h-6.5l-90,52.5l-2.8-0.2
				l3.9-2.7l-1.4-1.4l-1.8-29v-86.9l2.5-4.5l3.5,2.3l42.9-15.9l4.8-54.9l-8-12.2l-14.5,4.5L343,171l-11.8-1.6l-22.9-59.8l-22.6,60.1
				l-11.7,1.9l-14.7-27.9l-15.8-5.6l-9,14.5l6.7,52.9l42.2,15.1l6.6-0.6l-0.3-1l2.6,9.1l2.4,106.8l-5,10.7l-99.1-62l-6.6,0.7
				l4.6-3.7l7.3-3.3l9.3-40.8l-38.5-39l-16.7-1.8l-7.3,17.9l17.8,26.4l-6,12.8L89.2,232l42.4,53l-10.6,9.4l-31.4-0.6l-17.1,7.7
				l10.3,16l46,27.2l37.6-27.3l-0.6-7.1l5.9,5.5l105,59.2L204,419.2l-6.3,0.3l0.5,4.1l-3.5,0.8l-2.5-0.3l-2.7,1.2l-0.7,3.3l-3.3-0.7
				l-3.1,2.5l-2.4,1.2l-2.6,0.7l-2.3-1.2l-1.7,4.6l-0.9,0.1l-6.7-2.2L164,432l-2.7,5.2l-1.2-0.4l-0.5-3.7l-0.2-2.3l-34.2-27
				l-52.1,17.6L67.4,438l11.3,14.9l31.7-1.6l8,6.7l-42.2,49.1l62.6-13.8l6.8,13.7l-18.7,25.8l3.2,19l17.9-1.9l43.7-30.7l-9.2-43.2
				l2-0.6l2.4-3.1l-1-3.1l4.3,0.4l0.5-2.5l1.5-1.3l-0.4-3.4l0.3-2.6l4-2l3.7,1.3l-0.6-4.2l4.3,0.5l1.4-1.2l4.7-1.9l-1-3.9l4.1-2
				l3.1,2.9l3-7l73.5-37.8l-1.4,12.9l3.4,102.9l0.1,9l-4-2.6l-7.8-1.1l-42.1,14l-9.6,54.4l13,13.2l15-4.7l18.5-25.4l8.7-2.4l22,59.7
				l21.7-58.9l14.4-2.2l10.3,30.9l18.6,4l6.6-14.4l-5.7-52.9l-41.8-16.7l-5.1,3.5l2-0.1l-2.5-4.3l1.6-2.9l1.1-102.9l-1.8-4.3
				l0.4-6.6l0.1,1.7l65,31.3l6.2,2.7l28.3,22.4l9.3,6.4l-2.4,1.8L422.6,516l41.1,36.9l18.5-1.9l3.6-16.3l-11.2-29.4l1.5-10.4
				l64.9,17.4l-38.5-51.8l5.4-10.7l31.5,6.6l15.7-13.5L546,426.5z M500.8,315.7l-6.4,4.1l5.5,6.4l-8.1,5.9l-4.3-6.9l-5.9,3.2l-4-6.6
				l7.7-3.8l-4.2-6.5l3.5-6l6.4,6l4.4-0.6L500.8,315.7z M479.1,264.1l13.7,3.2l-1.5,15.1l-16.6-3.1L479.1,264.1z M180,241.5l6.2,4.4
				l4-7.5l8.4,5.3l-4.8,6.6l5.1,4.4l-4.7,6.1L188,255l-4.5,6.3l-6.9-1.2l3.3-8.1l-2.1-4L180,241.5z M125.6,308.3l8.2-0.6l2.8,8.6
				l-10.4,2.3L125.6,308.3z M138.4,330.8l-8.3,1.2l-3.4-8.2l11.2-2.7L138.4,330.8z M137.4,266.3l13.9-1.9l4,14.6l-16.6,3.1
				L137.4,266.3z M141.2,305.9l8.3-0.9l3.2,8.2l-11.4,2.3L141.2,305.9z M153.9,328.5l-7.6,1.1l-3.3-9.4l10.4-1.9L153.9,328.5z
				 M122.9,420l6.7-3.3l4.5,3.8l6.3-3.6l4,8.7l-6.2,3.8l2.6,6.4l-7.4,1.8l-2-4l-7.5,5.5l-4.4-8.8l8.8-3.2L122.9,420z M138.7,483
				l-13.4-4l2.4-14.9l16.3,4.1L138.7,483z M166.4,509.8l-8-2.5l1.3-9.3l10.2,2.8L166.4,509.8z M170.3,494.6l-7.5-2.7l1.1-9.5
				l10.1,2.2L170.3,494.6z M181.7,513.9l-7.4-2.2l0.6-9.9l10.3,2.3L181.7,513.9z M188.1,490.4l-2.2,7.4l-9.8-1l2.6-10.2L188.1,490.4
				z M279.5,549.9l-7,0.8l0.9,8l-10.7,0.4l0.3-8l-6.5-0.7l0.3-7.8l8.4,1.4l-0.1-7.8l7.5-2.5l-0.1,7.7l5.1,2.6L279.5,549.9z
				 M489.8,415.8l8.2-1.6l3.6,8.1l-11.1,3.1L489.8,415.8z M487.9,440.8l-8.3,1.2l-3.5-8.1l11.3-2.8L487.9,440.8z M474.5,418.6
				l7.5-1.4l3.5,9.2l-10.3,2.3L474.5,418.6z M449.8,239l8.1,2l-0.8,9.5l-10.4-2.2L449.8,239z M446.9,254.3l7.6,2.2L454,266
				l-10.2-1.6L446.9,254.3z M434.4,235.7l7.6,1.6v9.8l-10.4-1.7L434.4,235.7z M429.4,259.6l1.8-7.5l9.9,0.4l-2,10.3L429.4,259.6z
				 M337.7,195.8l7-0.8l-0.9-8l10.7-0.4l-0.3,8l6.5,0.7l-0.3,7.8l-8.4-1.4l0.1,7.8l-7.5,2.5l0.1-7.7l-5.1-2.6L337.7,195.8z
				 M308.6,167.4l9.6,10.3l-9.6,11.8l-12.1-11.8L308.6,167.4z M267.4,182l5.3,6.4l-5.5,7.3l-7.8-7.2L267.4,182z M256.5,205.5
				l-5.8-6.1l4.8-7.5l8.7,7.6L256.5,205.5z M267.2,216.7l-5.3-5.6l5.7-8l7.5,7.3L267.2,216.7z M279,205.5l-6-6.3l5.3-7.4l8.1,7.8
				L279,205.5z M308.6,578.3L299,568l9.6-11.8l12.1,11.8L308.6,578.3z M349.7,563.7l-5.3-6.4l5.5-7.3l7.8,7.2L349.7,563.7z
				 M360.6,540.2l5.8,6.1l-4.8,7.5l-8.7-7.6L360.6,540.2z M349.9,528.9l5.3,5.6l-5.7,8l-7.5-7.3L349.9,528.9z M344.7,546.6l-6,5.2
				l-7.6-5.7l6.9-7.6L344.7,546.6z M451.5,506.5l-6.3-4.1l-3.7,7.7l-8.7-5.1l4.6-6.7l-5.2-4.2l4.5-6.3l6.6,5.5l4.1-6.4l6.9,0.9
				l-2.9,8.2l2.3,3.8L451.5,506.5z M493.1,480.2l-13.9,2.4l-4.6-14.5l16.5-3.7L493.1,480.2z M503.5,437.8l-8.3,0.9l-3-8.5l10.3-2.6
				L503.5,437.8z"/>
			<path class="st6" d="M546,426.5l-48.2-22.6l-32.9,26l-2.4,6.7l-33.1-9.4l-4.1-2.5l-16.9-11.2l-14.2-12.2l-24.9-13.5l-27.8-11.9
				l14-9.4l87.2-47.3l8.7-4.3l5.9-4.4l3.6,0.7l0.1,3.8l2.8,2.3l32.9,23.5l51-20.2l9.7-16.8l-16.6-13.1l-31.4,4.5l-5.3-8l35.6-50.8
				L478.3,254l-5.3-12.5l12.3-28.9l-2.5-16.7l-17.4,1.6l-39.2,35.8l10.1,38.9l-0.6,3.1l-8,16l-2.8,0.8h-6.5l-90,52.5l-2.8-0.2
				l3.9-2.7l-1.4-1.4l-1.8-29v-86.9l2.5-4.5l3.5,2.3l42.9-15.9l4.8-54.9l-8-12.2l-14.5,4.5L343,171l-11.8-1.6l-22.9-59.8l-22.6,60.1
				l-11.7,1.9l-14.7-27.9l-15.8-5.6l-9,14.5l6.7,52.9l42.2,15.1l6.6-0.6l-0.3-1l2.6,9.1l2.4,106.8l-5,10.7l-99.1-62l-6.6,0.7
				l4.6-3.7l7.3-3.3l9.3-40.8l-38.5-39l-16.7-1.8l-7.3,17.9l17.8,26.4l-6,12.8L89.2,232l42.4,53l-10.6,9.4l-31.4-0.6l-17.1,7.7
				l10.3,16l46,27.2l37.6-27.3l-0.6-7.1l5.9,5.5l105,59.2L204,419.2l-6.3,0.3l0.5,4.1l-3.5,0.8l-2.5-0.3l-2.7,1.2l-0.7,3.3l-3.3-0.7
				l-3.1,2.5l-2.4,1.2l-2.6,0.7l-2.3-1.2l-1.7,4.6l-0.9,0.1l-6.7-2.2L164,432l-2.7,5.2l-1.2-0.4l-0.5-3.7l-0.2-2.3l-34.2-27
				l-52.1,17.6L67.4,438l11.3,14.9l31.7-1.6l8,6.7l-42.2,49.1l62.6-13.8l6.8,13.7l-18.7,25.8l3.2,19l17.9-1.9l43.7-30.7l-9.2-43.2
				l2-0.6l2.4-3.1l-1-3.1l4.3,0.4l0.5-2.5l1.5-1.3l-0.4-3.4l0.3-2.6l4-2l3.7,1.3l-0.6-4.2l4.3,0.5l1.4-1.2l4.7-1.9l-1-3.9l4.1-2
				l3.1,2.9l3-7l73.5-37.8l-1.4,12.9l3.4,102.9l0.1,9l-4-2.6l-7.8-1.1l-42.1,14l-9.6,54.4l13,13.2l15-4.7l18.5-25.4l8.7-2.4l22,59.7
				l21.7-58.9l14.4-2.2l10.3,30.9l18.6,4l6.6-14.4l-5.7-52.9l-41.8-16.7l-5.1,3.5l2-0.1l-2.5-4.3l1.6-2.9l1.1-102.9l-1.8-4.3
				l0.4-6.6l0.1,1.7l65,31.3l6.2,2.7l28.3,22.4l9.3,6.4l-2.4,1.8L422.6,516l41.1,36.9l18.5-1.9l3.6-16.3l-11.2-29.4l1.5-10.4
				l64.9,17.4l-38.5-51.8l5.4-10.7l31.5,6.6l15.7-13.5L546,426.5z M500.8,315.7l-6.4,4.1l5.5,6.4l-8.1,5.9l-4.3-6.9l-5.9,3.2l-4-6.6
				l7.7-3.8l-4.2-6.5l3.5-6l6.4,6l4.4-0.6L500.8,315.7z M479.1,264.1l13.7,3.2l-1.5,15.1l-16.6-3.1L479.1,264.1z M180,241.5l6.2,4.4
				l4-7.5l8.4,5.3l-4.8,6.6l5.1,4.4l-4.7,6.1L188,255l-4.5,6.3l-6.9-1.2l3.3-8.1l-2.1-4L180,241.5z M125.6,308.3l8.2-0.6l2.8,8.6
				l-10.4,2.3L125.6,308.3z M138.4,330.8l-8.3,1.2l-3.4-8.2l11.2-2.7L138.4,330.8z M137.4,266.3l13.9-1.9l4,14.6l-16.6,3.1
				L137.4,266.3z M141.2,305.9l8.3-0.9l3.2,8.2l-11.4,2.3L141.2,305.9z M153.9,328.5l-7.6,1.1l-3.3-9.4l10.4-1.9L153.9,328.5z
				 M122.9,420l6.7-3.3l4.5,3.8l6.3-3.6l4,8.7l-6.2,3.8l2.6,6.4l-7.4,1.8l-2-4l-7.5,5.5l-4.4-8.8l8.8-3.2L122.9,420z M138.7,483
				l-13.4-4l2.4-14.9l16.3,4.1L138.7,483z M166.4,509.8l-8-2.5l1.3-9.3l10.2,2.8L166.4,509.8z M170.3,494.6l-7.5-2.7l1.1-9.5
				l10.1,2.2L170.3,494.6z M181.7,513.9l-7.4-2.2l0.6-9.9l10.3,2.3L181.7,513.9z M188.1,490.4l-2.2,7.4l-9.8-1l2.6-10.2L188.1,490.4
				z M279.5,549.9l-7,0.8l0.9,8l-10.7,0.4l0.3-8l-6.5-0.7l0.3-7.8l8.4,1.4l-0.1-7.8l7.5-2.5l-0.1,7.7l5.1,2.6L279.5,549.9z
				 M489.8,415.8l8.2-1.6l3.6,8.1l-11.1,3.1L489.8,415.8z M487.9,440.8l-8.3,1.2l-3.5-8.1l11.3-2.8L487.9,440.8z M474.5,418.6
				l7.5-1.4l3.5,9.2l-10.3,2.3L474.5,418.6z M449.8,239l8.1,2l-0.8,9.5l-10.4-2.2L449.8,239z M446.9,254.3l7.6,2.2L454,266
				l-10.2-1.6L446.9,254.3z M434.4,235.7l7.6,1.6v9.8l-10.4-1.7L434.4,235.7z M429.4,259.6l1.8-7.5l9.9,0.4l-2,10.3L429.4,259.6z
				 M337.7,195.8l7-0.8l-0.9-8l10.7-0.4l-0.3,8l6.5,0.7l-0.3,7.8l-8.4-1.4l0.1,7.8l-7.5,2.5l0.1-7.7l-5.1-2.6L337.7,195.8z
				 M308.6,167.4l9.6,10.3l-9.6,11.8l-12.1-11.8L308.6,167.4z M267.4,182l5.3,6.4l-5.5,7.3l-7.8-7.2L267.4,182z M256.5,205.5
				l-5.8-6.1l4.8-7.5l8.7,7.6L256.5,205.5z M267.2,216.7l-5.3-5.6l5.7-8l7.5,7.3L267.2,216.7z M279,205.5l-6-6.3l5.3-7.4l8.1,7.8
				L279,205.5z M308.6,578.3L299,568l9.6-11.8l12.1,11.8L308.6,578.3z M349.7,563.7l-5.3-6.4l5.5-7.3l7.8,7.2L349.7,563.7z
				 M360.6,540.2l5.8,6.1l-4.8,7.5l-8.7-7.6L360.6,540.2z M349.9,528.9l5.3,5.6l-5.7,8l-7.5-7.3L349.9,528.9z M344.7,546.6l-6,5.2
				l-7.6-5.7l6.9-7.6L344.7,546.6z M451.5,506.5l-6.3-4.1l-3.7,7.7l-8.7-5.1l4.6-6.7l-5.2-4.2l4.5-6.3l6.6,5.5l4.1-6.4l6.9,0.9
				l-2.9,8.2l2.3,3.8L451.5,506.5z M493.1,480.2l-13.9,2.4l-4.6-14.5l16.5-3.7L493.1,480.2z M503.5,437.8l-8.3,0.9l-3-8.5l10.3-2.6
				L503.5,437.8z"/>
		</g>
	</g>
</g>
<g id="Layer_4" class="st0">
	<path class="st1" d="M350.9,521.9h-69c-6.6,0-12-5.4-12-12v-35.2c0-6.6,5.4-12,12-12h69c6.6,0,12,5.4,12,12v35.2
		C362.9,516.5,357.5,521.9,350.9,521.9z"/>
	<path class="st1" d="M179.4,588.8h-69c-6.6,0-12-5.4-12-12v-35.2c0-6.6,5.4-12,12-12h69c6.6,0,12,5.4,12,12v35.2
		C191.4,583.4,186,588.8,179.4,588.8z"/>
	<path class="st1" d="M260.4,631.2l-31.8,18.3c-5.7,3.3-13.1,1.3-16.4-4.4l-29.9-51.8c-3.3-5.7-1.3-13.1,4.4-16.4l31.8-18.3
		c5.7-3.3,13.1-1.3,16.4,4.4l29.9,51.8C268.1,620.5,266.1,627.9,260.4,631.2z"/>
	<path class="st1" d="M107.6,719.4l-31.8,18.3c-5.7,3.3-13.1,1.3-16.4-4.4l-29.9-51.8c-3.3-5.7-1.3-13.1,4.4-16.4l31.8-18.3
		c5.7-3.3,13.1-1.3,16.4,4.4L112,703C115.3,708.7,113.3,716.1,107.6,719.4z"/>
	<path class="st1" d="M63.3,654l-31.8-18.3c-5.7-3.3-7.7-10.7-4.4-16.4L57,567.4c3.3-5.7,10.7-7.7,16.4-4.4l31.8,18.3
		c5.7,3.3,7.7,10.7,4.4,16.4l-29.9,51.8C76.4,655.3,69,657.3,63.3,654z"/>
	<path class="st1" d="M215.1,741.6l-31.8-18.3c-5.7-3.3-7.7-10.7-4.4-16.4l29.9-51.8c3.3-5.7,10.7-7.7,16.4-4.4L257,669
		c5.7,3.3,7.7,10.7,4.4,16.4l-29.9,51.8C228.2,742.9,220.8,744.9,215.1,741.6z"/>
</g>
<g id="Layer_5" class="st0">
	<path class="st1" d="M390.2,563.2c-1.2-8.7-2.3-17.4-4-26c-1.8-9.2-12.7-12.9-20.3-7.4c-0.9,0.7-2.2,1.1-3.4,1.1
		c-6,0.1-11.9,0.1-17.9,0c-1.3,0-2.7-0.5-3.8-1.2c-7.3-5.2-18.1-1.7-20,7.1c-1.9,8.9-3,17.9-4.4,26.8c0,3.3,1.9,6.2,4.9,7.3
		c3.2,1.2,6.6,0.3,8.6-2.6c3-4.3,4.5-9.2,7-13.9c0.8-1.5,3.9-1.8,5.8-0.9c1.5,0.7,4.1,30.1,10.7,30.4c6.2,0.3,8.4-28.1,10.3-30.1
		c1.4-1.5,5.4-1.5,6.4,0.2c2.8,4.3,3.9,9.8,6.9,14.1c2.1,3,5.5,4.1,8.7,2.8C388.8,569.7,390.7,566.8,390.2,563.2z M338.7,541.9
		c0,0.4-2.4,0.4-3.2,0.5c-0.5,0-0.1,1.6-0.3,3.2c-1.4,0-2.5,0-3.8,0c-0.1-1.1-0.1-2.2-0.2-3.5c-1.1-0.1-2.2-0.1-3.4-0.2
		c0-1.1,0-2.2,0-3.5c1,0,2.1-0.1,3.4-0.2c0.1-1.1,0.1-2.2,0.2-3.5c1.2,0,2.3,0,3.5,0c0.1,1.1,0.2,2.2,0.3,3.4
		c1.2,0.1,2.3,0.2,3.5,0.3C338.7,539.5,338.7,540.6,338.7,541.9z M353.4,555.6c-2.6,0-4.8-2.2-4.8-4.8s2.2-4.8,4.8-4.8
		s4.8,2.2,4.8,4.8S356,555.6,353.4,555.6z M368.3,542.8c-1.5,0-2.9-1.2-2.8-2.8s1.1-2.5,2.5-2.6c1.7,0,3.1,1.3,3,2.8
		C370.8,541.7,369.9,542.7,368.3,542.8z M373.7,548.4c-1.5,0-2.8-1.3-2.6-2.9c0.1-1.6,1.1-2.5,2.7-2.6c1.6,0.1,2.6,1,2.7,2.6
		C376.6,547.1,375.2,548.4,373.7,548.4z M373.7,537.2c-1.6-0.1-2.6-1-2.6-2.7c-0.1-1.6,1.2-2.9,2.7-2.8c1.6,0.1,2.5,1.1,2.7,2.5
		C376.5,535.9,375.2,537.4,373.7,537.2z M379.6,542.8c-1.7,0.1-3.1-1.2-3.1-2.7c0.1-1.6,1-2.6,2.6-2.7c1.5-0.1,2.9,1.2,2.9,2.7
		C381.9,541.7,381.1,542.6,379.6,542.8z"/>
</g>
</svg>
