<?xml version="1.0" encoding="utf-8"?>
<!-- Generator: Adobe Illustrator 21.1.0, SVG Export Plug-In . SVG Version: 6.00 Build 0)  -->
<svg version="1.1" id="Layer_1" xmlns="http://www.w3.org/2000/svg" xmlns:xlink="http://www.w3.org/1999/xlink" x="0px" y="0px"
	 viewBox="0 0 1280 1024" style="enable-background:new 0 0 1280 1024;" xml:space="preserve">
<style type="text/css">
	.st0{fill:#8FB8CC;stroke:#193543;stroke-width:18;stroke-miterlimit:10;}
	.st1{display:none;}
	.st2{fill:#8FB8CC;}
</style>
<g id="Taustapallo">
	<circle class="st0" cx="640" cy="512" r="495"/>
</g>
<g id="Väri" class="st1">
	
		<image style="display:inline;overflow:visible;enable-background:new    ;" width="1778" height="314" xlink:href="DB329D7D.png"  transform="matrix(0.1433 0 0 0.1412 1008 24)">
	</image>
</g>
<g id="MobileGame">
	<g>
		<g id="XMLID_1_">
			<g>
				<path d="M812.6,580c25.8,0,40.6,14.9,40.6,40.6c0,49.6,0,99.2,0,148.8c0,24.3-15.3,39.6-39.5,39.6c-114,0-228.1,0-342.1,0
					c-24.3,0-39.5-15.3-39.5-39.6c0-50.1,0-100.3,0-150.4c0-23.6,15.4-39.1,39-39.1c57.3-0.1,114.6,0,171.9,0
					C699.5,580,756,579.9,812.6,580z M801.7,694.7c0.1,8.7,7,15.5,15.7,15.5c8.6,0,15.7-7.1,15.7-15.6c0-8.8-7.3-16-16.1-15.8
					C808.3,679,801.6,685.9,801.7,694.7z M463.5,744.3c3.9,0.1,5.9-2.2,6.4-5.8c-0.2-4.2-2.5-6.5-6.1-6.6c-3.7-0.1-6.3,2.3-6.4,6.1
					S459.6,744.2,463.5,744.3z M464,726.5c3.9,0,4.7-2.7,4.7-6.1c-0.1-11.5,0-23,0-34.6c0-11.7-0.1-23.4,0-35.1
					c0-3.3-0.7-6.2-4.6-6.2s-4.7,2.7-4.7,6.1c0.1,23.2,0.1,46.4,0,69.6C459.4,723.7,460.1,726.5,464,726.5z M779.6,790.2
					c0-64.1,0-127.7,0-191.6c-97.6,0-194.8,0-292.4,0c0,64.3,0,127.9,0,191.6C584.9,790.2,682.3,790.2,779.6,790.2z"/>
				<path class="st2" d="M817.3,710.2c-8.7,0-15.6-6.8-15.7-15.5c-0.1-8.7,6.6-15.7,15.3-15.9c8.8-0.2,16.1,7,16.1,15.8
					C833,703.1,825.9,710.1,817.3,710.2z"/>
				<path d="M729.9,682.7c-9.1,0-16.2-7.3-16.1-16.4c0.1-8.7,7.4-15.9,16.1-16.1c8.8-0.1,16.4,7.4,16.4,16.3
					C746.3,675.4,738.9,682.7,729.9,682.7z"/>
				<path d="M711.6,737.7c-8.7-0.1-16-7.3-16.2-16c-0.2-8.9,7.1-16.3,16.1-16.4c9.3-0.1,16.3,6.8,16.3,16
					C727.8,730.4,720.5,737.8,711.6,737.7z"/>
				<path d="M675.1,682.7c-9,0-16.3-7.2-16.3-16.2c0-8.9,7.6-16.4,16.4-16.3c8.7,0.1,15.8,7.3,16,16.1
					C691.3,675.4,684.2,682.6,675.1,682.7z"/>
				<path class="st2" d="M729.9,682.7c9,0.1,16.4-7.2,16.4-16.2c0-8.9-7.6-16.4-16.4-16.3c-8.7,0.1-16,7.4-16.1,16.1
					C713.7,675.3,720.8,682.6,729.9,682.7z M695.4,721.7c0.2,8.7,7.5,15.9,16.2,16c8.9,0.1,16.3-7.3,16.2-16.4c0-9.2-7-16.1-16.3-16
					C702.5,705.4,695.2,712.8,695.4,721.7z M675.1,682.7c9.1,0,16.2-7.3,16-16.4c-0.1-8.8-7.2-16-16-16.1s-16.4,7.4-16.4,16.3
					C658.8,675.5,666.1,682.7,675.1,682.7z M640.5,721c-0.2,9,7,16.5,15.9,16.7c8.8,0.2,16.5-7.3,16.6-16.1s-6.9-16.1-15.7-16.3
					C648,705.1,640.8,711.9,640.5,721z M521.5,708.1c6.6,0.1,13.3,0,20.7,0c0,7.4,0,14.2,0,21c0.1,7.6,3.4,10.9,10.8,11
					c1.9,0,3.8,0,5.8,0c7.6-0.1,10.7-3.2,10.8-10.9c0.1-6.8,0-13.5,0-20.7c2.2-0.1,3.8-0.3,5.5-0.3c5.6,0,11.2,0.1,16.8-0.1
					c6.5-0.2,9.8-3.7,9.9-10.3c0-1.9,0-3.8,0-5.8c-0.1-8.1-3.3-11.4-11.5-11.4c-6.7,0-13.5,0-20.8,0c0-7.6,0.1-14.5,0-21.5
					c-0.1-7.1-3.2-10.2-10.2-10.4c-1.7,0-3.5,0-5.2,0c-8.9,0-11.9,3.1-11.9,12c0,6.6,0,13.1,0,19.9c-5.7,0-10.6,0-15.5,0
					c-15.1,0-16.5,1.4-16.3,16.4C510.5,705,513.4,708,521.5,708.1z M779.6,598.6c0,63.9,0,127.5,0,191.6c-97.3,0-194.7,0-292.4,0
					c0-63.6,0-127.3,0-191.6C584.8,598.6,682,598.6,779.6,598.6z"/>
				<path d="M656.4,737.7c-8.9-0.2-16.1-7.7-15.9-16.7c0.2-9.1,7.4-15.9,16.8-15.7c8.8,0.2,15.9,7.5,15.7,16.3
					C672.9,730.5,665.3,737.9,656.4,737.7z"/>
				<path d="M559.3,648.7c7,0.2,10.1,3.3,10.2,10.4c0.1,6.9,0,13.9,0,21.5c7.3,0,14,0,20.8,0c8.2,0.1,11.4,3.3,11.5,11.4
					c0,1.9,0,3.8,0,5.8c-0.2,6.5-3.4,10.1-9.9,10.3c-5.6,0.2-11.2,0-16.8,0.1c-1.7,0-3.4,0.2-5.5,0.3c0,7.2,0,14,0,20.7
					c-0.1,7.7-3.2,10.8-10.8,10.9c-1.9,0-3.8,0-5.8,0c-7.5-0.1-10.8-3.4-10.8-11c-0.1-6.8,0-13.5,0-21c-7.5,0-14.1,0.1-20.7,0
					c-8-0.1-11-3.1-11.1-11.1c-0.2-15,1.2-16.4,16.3-16.4c4.9,0,9.8,0,15.5,0c0-6.8,0-13.3,0-19.9c0-8.9,3-11.9,11.9-12
					C555.9,648.7,557.6,648.7,559.3,648.7z"/>
				<path class="st2" d="M464,726.5c-3.9-0.1-4.6-2.8-4.6-6.2c0.1-23.2,0.1-46.4,0-69.6c0-3.4,0.8-6.1,4.7-6.1
					c3.9,0,4.6,2.9,4.6,6.2c-0.1,11.7,0,23.4,0,35.1c0,11.5-0.1,23,0,34.6C468.7,723.8,467.9,726.6,464,726.5z"/>
				<path class="st2" d="M463.5,744.3c-3.9-0.1-6.2-2.5-6.1-6.3s2.7-6.2,6.4-6.1c3.7,0.1,6,2.4,6.1,6.6
					C469.4,742.1,467.4,744.4,463.5,744.3z"/>
			</g>
		</g>
	</g>
</g>
<g id="PcGame">
	<g>
		<g id="XMLID_2_">
			<g>
				<path d="M1044,292.8c0,73.3,0,146.4,0,219.9c-24.7,0-49.1,0-74.1,0c0-73.6,0-146.5,0-219.9C994.7,292.8,1019.1,292.8,1044,292.8
					z M990,319.1c11.9,0,23.4,0,36.1,0C1019.5,314.8,994.2,315.1,990,319.1z M1025.7,358.9c-12.4,0-23.9,0-36.3,0
					C994.8,363.3,1020.3,363.3,1025.7,358.9z M1024.8,340.4c0-0.6,0-1.3,0-1.9c-11.5,0-23,0-34.5,0c0,0.6,0,1.3,0,1.9
					C1001.8,340.4,1013.3,340.4,1024.8,340.4z M1009.5,461.1c2.3,0,4.5-2.9,8.6-5.9c-4.4-2.6-7-5.5-9-5.1c-2.2,0.4-4.8,3.8-5.1,6.2
					C1003.7,457.8,1007.5,461.2,1009.5,461.1z"/>
				<path class="st2" d="M1026.1,319.1c-12.8,0-24.2,0-36.1,0C994.2,315.1,1019.5,314.8,1026.1,319.1z"/>
				<path class="st2" d="M989.4,358.9c12.4,0,23.9,0,36.3,0C1020.3,363.3,994.8,363.3,989.4,358.9z"/>
				<path class="st2" d="M1024.8,338.5c0,0.6,0,1.3,0,1.9c-11.5,0-23,0-34.5,0c0-0.6,0-1.3,0-1.9
					C1001.8,338.5,1013.3,338.5,1024.8,338.5z"/>
				<path class="st2" d="M1018.1,455.3c-4.1,3-6.3,5.8-8.6,5.9c-2,0-5.7-3.4-5.5-4.8c0.3-2.4,2.9-5.8,5.1-6.2
					C1011,449.7,1013.7,452.6,1018.1,455.3z"/>
				<path d="M958.1,475.9c0,10.9-1.3,12.1-12.4,12.1c-23.1,0-46.2,0.1-69.3-0.1c-3.3,0-7.3-1.3-9.8-3.4
					c-24.2-19.6-58.7-19.5-83.1,0.1c-2.4,1.9-6.1,3.2-9.1,3.3c-24.1,0.3-48.2,0.2-72.2,0.1c-9.1,0-11.1-2.1-11.1-11.4
					c0-57.5,0-115,0-172.5c0-9.2,2.5-11.6,11.9-11.6c40.5,0,81.1,0,121.6,0l0,0c40.3,0,80.6,0,120.9,0c10.8,0,12.5,1.8,12.5,12.3
					C958,361.9,958,418.9,958.1,475.9z M941.8,456.3c0-49.4,0-98.1,0-146.5c-78.5,0-156.3,0-234,0c0,49.2,0,97.7,0,146.5
					C785.9,456.3,863.4,456.3,941.8,456.3z"/>
				<path class="st2" d="M941.8,309.8c0,48.4,0,97.1,0,146.5c-78.3,0-155.9,0-234,0c0-48.9,0-97.4,0-146.5
					C785.5,309.8,863.2,309.8,941.8,309.8z"/>
				<path d="M877,512.5c-34.7,0-69.3,0-104,0c3.6-21.7,26.9-37.9,53.3-37.5C851.6,475.4,874.3,492,877,512.5z"/>
			</g>
		</g>
	</g>
</g>
<g id="ConsoleGame">
	<g>
		<g id="XMLID_3_">
			<g>
				<path d="M601,471.2c0,5.9,0,11.9,0,17.8c-3.9,11.4-11.6,19-22.9,22.9c-6.4,0-12.7,0-19.1,0c-4.7-1-9.5-1.9-14.2-3.1
					c-32.2-8.4-53.3-30-68.6-58.3c-4.7-8.8-8.2-18.1-11.8-27.4c-32.9,0-65.6,0-98.6,0c-3.5,9.3-7,18.6-11.8,27.4
					c-14.5,26.9-34.3,47.9-64.4,57.1c-6,1.8-12.3,2.9-18.5,4.3c-6.4,0-12.7,0-19.1,0c-11.4-3.9-19-11.5-22.9-22.9c0-6,0-11.9,0-17.8
					c0.3-2.1,0.8-4.1,0.9-6.2c2.2-33.9,4.4-67.8,6.5-101.6c1-17.1,7.1-32.1,18.2-45.1c12.1-14.1,27.9-21.6,45.8-25.4
					c6.8,0,13.6,0,20.4,0c9.7,2.3,19.3,4.8,27.9,10.1c1.9,1.2,4.1,0.9,6.2,0.9c40.1,0,80.2,0,120.3,0c2.1,0,4.2,0.3,6.2-0.9
					c8.6-5.3,18.2-7.8,27.9-10.1c6.8,0,13.6,0,20.4,0c0.8,0.3,1.5,0.8,2.3,0.9c32.7,6.5,55.5,29.2,60.7,62.1c2.3,14.8,2.5,30,3.5,45
					C597.8,424.3,599.4,447.8,601,471.2z M519.3,411.4c24.6,0,44.6-20.1,44.4-44.5c-0.2-24.1-20.3-44.1-44.4-44.1
					c-24.5-0.1-44.5,19.9-44.5,44.4C474.9,391.9,494.4,411.4,519.3,411.4z M355.1,367.5c0.1-24.7-19.5-44.6-44.1-44.8
					c-24.2-0.2-44.7,20.1-44.7,44.4c0,24.2,19.7,44.1,44,44.2C335.3,411.5,355,392.2,355.1,367.5z"/>
				<path d="M533.9,367c8.4-0.1,15.3,6.9,15.1,15.4c-0.1,8.1-7,14.8-15.1,14.7c-8.2-0.1-14.8-6.8-14.8-15
					C519.1,373.7,525.7,367.1,533.9,367z"/>
				<path d="M504,337.3c8.3-0.2,15.5,6.9,15.4,15.2c-0.1,8.2-6.8,14.7-15.1,14.7c-8.3,0-14.9-6.5-15-14.7S495.8,337.4,504,337.3z"/>
				<path d="M344.2,356.6c0.6,7.2,0.6,14.3,0,21.8c-7.3,0-14,0-21.2,0c-1.7,7.3,0.1,14.6-1.3,21.9c-6.4,1-12.7,0.4-19,0.4
					c-3.1,0-3.1-2.2-3.2-4.4c-0.3-5.7,0.6-11.4-0.8-17.7c-6.9,0-13.8,0-21.1,0c0-7.8,0-14.9,0-22.1c5.7-1.1,11.2-0.6,16.7-0.5
					c3.8,0,5.4-1.2,5.2-5.1c-0.2-5.5-0.1-11-0.1-17.1c8.1,0,15,0,22.5,0c0,7.1,0,14.1,0,21.1C329.4,357.1,336.7,354.8,344.2,356.6z"
					/>
			</g>
		</g>
	</g>
</g>
</svg>
