<?xml version="1.0" encoding="utf-8"?>
<!-- Generator: Adobe Illustrator 21.1.0, SVG Export Plug-In . SVG Version: 6.00 Build 0)  -->
<svg version="1.1" id="Layer_1" xmlns="http://www.w3.org/2000/svg" xmlns:xlink="http://www.w3.org/1999/xlink" x="0px" y="0px"
	 viewBox="0 0 612 792" style="enable-background:new 0 0 612 792;" xml:space="preserve">
<style type="text/css">
	.st0{fill:#397C8F;}
	.st1{fill:#010101;}
</style>
<g id="Layer_1_1_">
	<circle class="st0" cx="306" cy="396" r="296"/>
</g>
<g id="Layer_2">
	<g>
		<path class="st1" d="M148,567.4c0-57,0-113.1,0-171.3c-9.5,0-18.5,0-27.5,0c-7.9,0-15.1-1.7-18-10.2c-2.8-8.1,2.2-13.2,7.6-18.1
			C172,312.6,234,257.4,295.7,202c7.5-6.7,13.6-6.5,20.6-0.2c62.5,55.9,124.9,111.9,187.4,167.8c4.9,4.4,8,9.4,5.9,16.2
			c-2.3,7.4-8.2,10.1-15.2,10.3c-9.6,0.3-19.2,0.1-30.2,0.1c0,57.6,0,114.4,0,171.7c-38.6,0-75.8,0-114.7,0c0-20.2,0-40.6,0-61.1
			c0-12.3-0.5-24.6,0.1-36.9c0.5-11.6-4.6-15.6-15.7-15.3c-18.4,0.5-36.9,0.6-55.3,0c-11.7-0.4-15.4,4.9-15.4,15.8
			c0.3,32,0.1,64.1,0.1,97.1C225.2,567.4,187.4,567.4,148,567.4z"/>
	</g>
</g>
</svg>
