<?xml version="1.0" encoding="utf-8"?>
<!-- Generator: Adobe Illustrator 21.1.0, SVG Export Plug-In . SVG Version: 6.00 Build 0)  -->
<svg version="1.1" id="Layer_1" xmlns="http://www.w3.org/2000/svg" xmlns:xlink="http://www.w3.org/1999/xlink" x="0px" y="0px"
	 viewBox="0 0 1280 1024" style="enable-background:new 0 0 1280 1024;" xml:space="preserve">
<style type="text/css">
	.st0{fill:#397C8F;}
</style>
<g id="Layer_1_1_">
	<circle class="st0" cx="624" cy="512" r="507"/>
</g>
<g id="Layer_2">
	<g>
		<path d="M478.1,739.2c19,0,37.7-9.2,49.1-26.2c18-27.1,10.7-63.6-16.3-81.7l-46.3-30.9c7.9-2.2,16.3-3.3,24.9-3.3
			c52.2,0,94.4,42.3,94.4,94.4c0,52.2-42.3,94.4-94.4,94.4c-50.8,0-92.2-40.1-94.3-90.3l50.5,33.6
			C455.5,736,466.9,739.2,478.1,739.2z M863.3,153c65.8,0,119.7,53.9,119.7,119.7v478.6c0,65.9-53.8,119.7-119.7,119.7H384.7
			C318.9,871,265,817.2,265,751.3V609l85.1,56.7c-8.2,44.3,4.9,91.7,39.1,126c55.3,55.3,145,55.3,200.4,0
			c34-34,47.1-80.9,39.3-124.9l174.6-156.4l0,0c32.4-4.7,63.7-19.5,88.6-44.4c61.3-61.3,61.3-160.8,0-222.1s-160.8-61.3-222.1,0
			c-24.9,24.9-39.7,56.2-44.4,88.6l0,0L482.1,550c-22.3,1.1-44.4,7.5-64.3,19.2L265,467.4V272.7c0-65.8,53.9-119.7,119.7-119.7
			L863.3,153L863.3,153z M893.3,354.9c0-62-50.2-112.2-112.2-112.2S668.9,293,668.9,354.9s50.2,112.2,112.2,112.2
			S893.3,416.9,893.3,354.9z M713.8,354.9c0-37.2,30.1-67.3,67.3-67.3s67.3,30.1,67.3,67.3s-30.1,67.3-67.3,67.3
			S713.8,392.1,713.8,354.9z"/>
	</g>
</g>
</svg>
