<?xml version="1.0" encoding="utf-8"?>
<!-- Generator: Adobe Illustrator 21.1.0, SVG Export Plug-In . SVG Version: 6.00 Build 0)  -->
<svg version="1.1" xmlns="http://www.w3.org/2000/svg" xmlns:xlink="http://www.w3.org/1999/xlink" x="0px" y="0px"
	 viewBox="0 0 1280 1024" style="enable-background:new 0 0 1280 1024;" xml:space="preserve">
<style type="text/css">
	.st0{fill:none;}
</style>
<g id="Layer_1">
	<circle class="st0" cx="641" cy="512" r="498"/>
</g>
<g id="Layer_2">
	<g>
		<g>
			<path d="M251.6,761.9c86.6,6.8,164.7-14.3,235.1-67.5c-74.1-6.4-123.4-43.5-150.8-112.9c25,4,47.9,3.6,70.9-2.5
				c-79.4-23.9-122-76.5-127.9-161.3c23.7,11.8,46.4,19.3,71.4,20c-71.1-59.6-87.1-130.7-48.3-216.1c88.4,104,199,160.5,332.9,169.8
				c-0.7-16.2-2.4-31.5-1.8-46.8c2.4-62,44.6-120.3,102.9-141c64.1-22.8,121.7-10.7,171.6,35.7c3.4,3.2,6.2,3.9,10.8,2.9
				c31.3-7,60.9-18,88.9-33.7c1.6-0.9,3.2-1.7,4.8-2.4c0.4-0.2,0.9,0,2.2,0.1c-12.2,36.3-34.8,64.1-65.7,87
				c9.5-1.8,19.1-3.2,28.5-5.4c10-2.3,19.9-5,29.6-8.1c9.4-3,18.6-6.7,27.9-10.1c0.5,0.6,1,1.1,1.5,1.7
				c-12.9,15.1-25.2,30.8-39,45.1c-11.2,11.6-24.4,21.2-36.3,32c-2.4,2.2-4.4,6.3-4.4,9.5c1,146.5-52.1,269.4-161.1,367.2
				c-60.4,54.3-132.2,86.6-212.1,100.6c-84.4,14.8-167.2,8.4-247.8-21.5C306,793.4,277.8,779.5,251.6,761.9z"/>
		</g>
	</g>
</g>
</svg>
