<?xml version="1.0" encoding="utf-8"?>
<!-- Generator: Adobe Illustrator 21.1.0, SVG Export Plug-In . SVG Version: 6.00 Build 0)  -->
<svg version="1.1" id="Layer_1" xmlns="http://www.w3.org/2000/svg" xmlns:xlink="http://www.w3.org/1999/xlink" x="0px" y="0px"
	 viewBox="0 0 1280 1024" style="enable-background:new 0 0 1280 1024;" xml:space="preserve">
<style type="text/css">
	.st0{fill:#397C8F;}
	.st1{fill:#193543;}
</style>
<g>
	<path class="st0" d="M1033.2,676.8c-15.9-15.9-30.3-24.8-47.5-24.8c-10.9,0-22.1,3.5-35.5,9.5c-0.8-8.2-6.4-12.2-10.6-14.1
		c-6.1-2.7-12.9-2.9-14.9-2.9c-2.6,0-4.7,0.3-6.4,1c-4.9-0.3-9.9-0.5-14.3-0.5c-9.6,0-18.9,1-22.7,8.1c-0.5,1-0.9,2-1.1,3
		c-19.7-6.7-33.7-9.3-48.6-9.3c-2.6,0-5.2,0.1-7.9,0.2c-3.1,0.2-6.5,0.5-10.1,0.9l7.2-4.2l-26.4,0.2c-1.7,0-3.3,0-4.7,0
		c-0.8,0-1.5,0-2.1,0l-1.2-5c-4.3,0.7-8.6,1.3-12.5,1.8c0.9-0.6,1.9-1.3,3-2l-6.5-12.3c-19.3,7.8-30.8,11.7-40.2,11.7
		c-11.2,0-20.8-5.6-41-24.1l-22.6-20.6l11.4,28.4c5.6,14.1,4.1,17.4,3.8,17.9c-0.1,0.2-1.5,1.8-9.5,1.8c-5.8,0-13.3-0.8-23.5-2.1
		l-43.1-5.4l20.6,9.8h-34.9c-5.5,0-11.8,0-13.6-2.2c-0.6-0.7-2.2-3.7,0.1-13.6l4.5-19.1l-15.6,12c-7.9,6-17.6,13-23.4,13
		c-7.7,0-13.6-20.1-17.4-59.7l-4-41.5l-9.7,40.6c-3.4,14.3-13.9,57.6-25,57.6c-6.8,0-18.6-11.9-28-22.2l-19-20.8l7.1,27.3
		c5.3,20.3,2.7,24.9,2.2,25.6c-0.5,0.6-1.8,0.7-2.9,0.7c-2.8,0-6.6-0.8-9.5-1.6l-2-0.5l-1.9,0.6c-8.1,2.7-18.4,3.4-27.6,4.1
		c-3.7,0.3-7.2,0.5-10.3,0.9c-4.6,0.6-12.8,1.6-15.6,7.2c-22.6-3.2-36.1-4.5-45.3-4.5c-5.7,0-17.4,0-20.1,8.6
		c-0.5,1.7-0.6,3.5-0.3,5.2c-17.4-6.6-26.4-9.1-31.6-9.1c-1.2,0-2.3,0.1-3.3,0.4c-8.9-9.1-12.6-16-12.6-23.5
		c-0.1-11.7,8.3-27.3,28.2-52.2l12.1-15.1l-19,3.9c-5.2,1.1-9.9,1.6-14,1.6c-5.7,0-10-1.1-12.8-3.1c-0.7-5.1-1.2-10.2-1.6-14.8
		c-0.9-9.5-1.5-16.1-5-18.9c1.2-10.2,2.2-18.3,3.1-22.6l0.3-1.4l-0.3-1.4c-0.6-3.4-1.2-6.6-2.3-9.1c2.5,0,5.3,0.2,8.5,0.5l28.8,2.9
		l-24.3-15.7c-11.3-7.3-13.9-10.6-14.5-11.8c1-1.3,4.9-4.3,20.2-10l38.5-14.4l-41.1,0.8c-2,0-3.9,0.1-5.7,0.1
		c-16.8,0-21.9-1.9-23.2-3.5c-0.7-0.8-1.1-3.2,0.4-10.2l6.4-29.2l-12.2,15.3l-4.2,0c-1.4,0-4.8-2.5-7.5-4.6c-1-0.7-2-1.5-3-2.2
		c-4.6-5.6-11.8-11.3-23.5-18.4c10.5-4,19.2-8.6,26.4-14.1c10.1-7.6,17.3-16.8,22-28.1c2.5-6.2,5.4-15.2,0.7-22.1
		c-1.6-2.3-3.7-4.1-6.5-5.2c4.5-8.3,7.4-17,5.3-26c-1.9-8.1-7.3-15.7-17.8-23.9c6.9-0.3,15-2,18.8-8.5c3.6-6.1,1.8-13.6-1.7-21.2
		c4.1-1.8,7.1-5.3,8.8-10c1.9-5.2,1.9-11.3,1.9-16.6V187c0-2.8,2.2-5,5-5h9.3c3,0,6.8,0,11.3-0.1l0.2,0c0.6,0,1.3,0,1.9,0
		c1.3,0,2.1,0.1,2.6,0.1l2.1,5l6.2-2.2c1.9-0.7,3.3-1.1,4.3-1.2c0.4,1.3,1,4.9,0.1,13.4l-3.1,29.2l15.9-24.7
		c5.3-8.3,12.1-17.7,16.8-17.7c4,0,10.3,5.2,14.6,9.2l21.1,19.1l-9.4-25.4l21.2,16l-12.4-25c2.1,0.7,4.5,1.2,7.2,1.2
		c2.4,0,4.6-0.4,6.7-1.3c4.7-2,7.9-5.9,10.1-10.3c4.7,5,10.1,8.5,16.4,8.5c7.3,0,13-4.8,17.7-11.2c2.9,5.9,5.8,10,8.6,13.3l2.6,3.1
		l3.9-0.6c0.6-0.1,1.2-0.2,1.8-0.3c1.4-0.2,2.7-0.5,3.6-0.5c0.7,0,0.9,0.1,1.4,0.6c0.8,0.9,2.3,3.4,3.8,10l5.4,23.9l8-23.2
		c0.7-2.2,1.4-3.9,2-5.4c0.8,2.4,1.8,5.7,2.9,10.2l9.7,37.3l4.1-38.4c0.4-3.9,0.9-6.7,1.3-8.6c0.5,0.6,1,1.2,1.6,2l9.6,12.5
		l2.8-15.5c0.6-3.3,0.6-3.3,4.3-3.6c0.5,0,0.9-0.1,1.4-0.1l0.2,0l0.2,0c5.2-0.9,9.6-2.6,13.2-5.2c9.9,2.4,18.3,3.5,26.3,3.5
		c3.4,0,6.8-0.2,10-0.6c11.4-0.8,24.8-4.3,33.6-21.6c6.6,7.7,12.1,11,17.7,11c7.5,0,12.4-5.6,15.7-13.6c5.8,11,13.1,18.9,23.1,18.9
		c7.6,0,15.2-4.4,25.2-14.7c4.7,7.5,10.3,11.8,15.9,11.8c1.4,0,2.7-0.3,4-0.8c7,5.2,13.1,7.6,18.9,7.6c10.7,0,17.1-8.2,20.9-15.7
		c1.9,2.3,2.5,4.7,2,8.4l-1.5,11l10.5-3.3c1-0.3,4.1-1.3,6-1.3c0.5,0,0.7,0.1,0.7,0.1c0.6,0.5,3.7,4.7,1.4,33.8l-3.6,45.2l17.1-42
		c6.9-17,10.5-22.4,12.3-24.1c1.7,1.6,5.3,6.7,12.1,22.4l20.8,47.7l-7.4-51.5c-1.3-8.9-1.8-14.6-1.9-18.3c0.5,0.5,1,1,1.6,1.6
		l19.3,19.3l-7.6-26.2c-1-3.4-1.3-5.5-1.4-6.6c0.7,0.1,1.5,0.2,2.3,0.3c2.8,0.4,6,0.8,9.4,0.8c3.1,0,5.9-0.4,8.5-1.1
		c6-1.8,11.1-5.8,15.3-12.1c5.7,6.1,12.9,11.4,21.8,11.4c7.1,0,14.3-3.3,22.2-10.5c8.2,6.4,17.6,10.7,28.6,13
		c4.1,0.9,7.7,1.3,10.9,1.3c10.3,0,16.4-4.4,20.1-9.6c14.5,4.8,26.8,7.1,38.5,7.1c6.5,0,12.6-0.7,18.8-2.1c8.1-1.9,16-5.1,23.1-9.3
		c6.1,5.6,9.4,9.5,7.8,23.2l-2.3,18.9l14-13c6.2-5.8,10.4-8.7,12.6-8.7c1,0,4.8,1.5,12.2,21.3l9.1,24l4.4-25.3
		c2.2-12.5,4.2-18.1,5.4-20.6c0.3,0.3,0.5,0.6,0.9,1l3.8,4.7c0.1,2.4,0.4,5.4,0.9,9.4c-1.3,12.1,0.3,26.3,18.7,41.5
		c-3.8,3.8-6.3,7.4-7.5,11.1c-1.3,3.8-1.2,7.6,0.1,10.6c-1.1-0.3-2.6-0.9-4.6-1.8l-22.7-10.7c0,0,14.2,21.4,14.3,21.6
		c-2-0.4-4.4-0.9-7.1-1.6l-58.5-14.5l53.6,27.5c2.5,1.3,4.6,2.4,6.4,3.4c-1.6,0.3-3.6,0.5-5.8,0.8l-63.8,8.2l64.1,5.8
		c13.1,1.2,22.6,2.5,26.7,5c0.7,0.4,1.2,0.9,1.7,1.7c-2.6,2.6-5.2,6.9-8,13.5l-10,23l14.1-10c-3.6,4-5.3,8.2-5.1,12.5
		c0.3,7.7,6.1,14.1,18.3,19.9c-5.1,4-8.4,8.7-7.4,14.3c0.8,4.3,3.8,7.2,8.1,9.3c-10.3,5.9-16.6,12.1-16.7,20.1
		c-0.2,9.4,8.1,16.7,21.6,23.9c-8.5,6-12.6,12.1-12.4,18.5c0.1,4.1,1.8,7.8,5.2,11c-10.8,6.6-13,11.4-13.4,15
		c-0.1,1.1-0.1,2.3,0.1,3.3c-5.1,10.3,0.4,16.7,3.2,19.2c2.3,2,5.3,3.6,8.9,4.8c-1.6,0.3-3.2,0.4-4.9,0.4l-10.7,0l4.3,9.8
		c0.7,1.5,1.1,2.6,1.3,3.3c-0.9,0.2-2.3,0.4-4.5,0.5l-35.4,1.9l33.5,11.7c9.8,3.4,16.5,6,21.6,8.7c-6.1,1.5-12.7,4.1-20.2,7.5
		l-48.2,22l45.4-7.6l-0.3,2.7l1.7,2.3c2,2.7,4.5,6,7.9,9.8c-14.7,12.5-14.7,28.9-14.7,39.3V639c0,2.7-2.3,5-5,5
		c-0.4,0-3.2,0-6.8,0.7c-1.9-0.2-3.5-0.3-4.9-0.3c-2.3,0-9.4,0-12.5,5.7c-4.3-1.1-8.5-1.8-12.2-1.8c-6.5,0-11.4,2.2-14.8,6.4
		C1033.7,659.5,1032.3,666.4,1033.2,676.8z"/>
	<path class="st1" d="M618.2,167.7c6,7.7,13.4,12.8,23,12.8c8.9,0,16.9-4.6,24.4-11.2c5,5.4,10.7,8.3,16.7,8.3
		c0.9,0,1.7-0.1,2.6-0.2c7.2,4.8,13.8,7,20.3,7c5.3,0,10.2-1.5,14.5-4.3l-1.5,11l20.6-6.5c0.4,4,0.6,11.5-0.5,25.2l-7.2,90.4
		l34.2-84c2.4-6,4.4-10.4,6-13.6c1.5,2.9,3.3,6.8,5.6,12.1l41.6,95.4l-14.6-101.3l26.1,26.1l-14.2-49c0.9,0,1.8,0.1,2.7,0.1
		c3.8,0,7.3-0.5,10.5-1.4c5.3-1.6,10-4.4,14-8.5c5.8,4.7,12.8,8.1,21.1,8.1c8.7,0,16.3-3.9,22.5-8.6c7.9,5.3,16.8,8.9,26.8,11
		c4.6,1,8.6,1.4,12.3,1.4c9.2,0,16.8-3,22.4-8.5c13.3,4.1,25,6,36.1,6c6.9,0,13.8-0.8,20.4-2.3c7-1.6,13.9-4.2,20.2-7.4
		c0.6,0.7,1,1.3,1.3,2c1.1,2.3,1.4,6.3,0.7,11.7l-4.5,37.9l28-26c3-2.8,5.1-4.5,6.5-5.5c1.4,2.3,3.8,6.8,7,15.5l12.2,32.3l-16.8-8
		l18.4,27.7l-106.7-26.4l93.8,48.1l-111.3,14.2l128.1,11.5c8.3,0.7,14.5,1.5,18.6,2.4c-1.4,2.5-2.7,5.2-3.9,8l-20.1,46.1l19-13.5
		c1.7,7.3,6.9,12.9,13.6,17.3c-2.6,3.9-4,8.5-3.1,13.8c0.5,2.9,1.6,5.4,3.2,7.4c-7,5.5-11.8,12.1-11.9,20.5
		c-0.2,10.6,6.9,18.6,16.6,25.1c-4.4,4.8-7.6,10.7-7.5,17.7c0.1,3.3,0.8,6.4,2.3,9.2c-6.4,5-9.7,10.1-10.4,15.8
		c-0.1,1.1-0.2,2.1-0.1,3.2c-2.8,7.1-2.2,13.4,0.3,18.4l-7.3,0l6.1,13.9l-65.5,3.5l67,23.4c1.6,0.6,3.1,1.1,4.6,1.6
		c-1.2,0.5-2.5,1.1-3.8,1.7l-96.4,44l91.3-15.2l0.8,1.1c1.1,1.6,2.5,3.3,4,5.2c-12.2,13.7-12.2,30-12.2,39.8v15.8
		c-1.3,0.1-3.1,0.3-5.1,0.6c-1.7-0.1-3.2-0.2-4.6-0.2c-7.4,0-12.1,2.2-15.2,4.9c-3.3-0.7-6.5-1-9.5-1c-10.9,0-17,5-20.3,9.1
		c-2.4,3.1-4.1,6.8-5.1,11.2c-13.1-10.6-26.1-16.6-41.1-16.6c-9.9,0-19.9,2.6-31.1,7c-3.5-6.5-9.3-9.7-12.1-11
		c-7.3-3.3-15.5-3.5-17.8-3.5c-2.8,0-5.2,0.3-7.3,0.9c-4.6-0.3-9.3-0.5-13.5-0.5c-6.8,0-20.6,0-27.4,9.5
		c-13.5-4.3-24.6-6.5-35.5-7.3l6.1-3.5l-52.9,0.3c-1.6,0-3.2,0-4.7,0c-1.3,0-2.4,0-3.2,0l-1.2-4.9c-3.5,0.5-7,1.1-10.4,1.5
		l-7.1-13.6c-18,7.3-29.4,11.2-37.6,11.2c-9.1,0-17.6-5.2-36.2-22.2l-45.2-41.2l22.7,56.8c1.9,4.9,2.9,8.1,3.3,10.1
		c-0.7,0-1.6,0.1-2.6,0.1c-5.4,0-12.7-0.8-22.6-2l-63.7-7.9l7.7-33.1l-31.1,23.9c-11.6,8.9-16.5,11-18.4,11.4
		c-0.9-1.1-2.8-4.2-4.9-12.1c-2.5-9.4-4.6-22.8-6.3-41.1l-8-83l-19.5,81.1c-4.4,18.2-8.3,31.4-12,40.3c-3.3,8-5.7,10.9-6.7,11.8
		c-0.9-0.3-2.9-1.3-6.3-4c-4.2-3.3-9.3-8.3-16-15.7l-38-41.6l14.1,54.6c2.3,9,2.9,14.3,3,17.3c-2-0.3-4-0.8-4.9-1.1l-3.9-1l-3.8,1.3
		c-7.3,2.4-17.2,3.1-25.9,3.8c-3.8,0.3-7.4,0.6-10.6,1c-3.9,0.5-12.3,1.5-17.8,6.7c-20.6-2.8-33.3-4-42.2-4c0,0-0.1,0-0.1,0
		c-5.9,0-20.7,0.1-25.8,11.3c-13.4-4.8-20.8-6.6-26-6.6c-0.2,0-0.4,0-0.6,0c-7.1-7.8-8.3-12.4-8.3-16.1c-0.1-9.8,8.1-24.6,26.6-47.7
		l24.2-30.3l-38,7.9c-4.8,1-9,1.5-12.5,1.5c-2.5,0-4.7-0.3-6.4-0.7c-0.4-3.7-0.8-7.4-1.1-10.8c-0.4-4.3-0.7-8-1.2-10.9
		c-0.7-4.1-1.9-7.2-3.5-9.5c1-8.6,1.9-15.4,2.7-19l0.6-2.7l-0.5-2.7c0,0,0-0.1,0-0.1l56.2,5.6l-48.6-31.4c-3-1.9-5.2-3.5-7-4.8
		c2.6-1.2,6.2-2.7,11.3-4.6l77-28.7l-82.2,1.6c-2,0-3.9,0.1-5.6,0.1c-9.5,0-14.3-0.6-16.7-1.1c0.1-1,0.3-2.3,0.7-4.1l12.7-58.4
		l-28.6,35.8c-1.1-0.7-2.9-2-4.3-3c-0.7-0.6-1.5-1.2-2.4-1.8c-3.3-3.9-7.7-7.8-13.6-12c5.9-2.9,11.2-6.2,15.9-9.7
		c11.2-8.4,19.1-18.6,24.2-31c1.8-4.4,7.4-17.8,0.1-28.7c-0.8-1.2-1.9-2.5-3.2-3.8c3.4-7.9,5.1-16.2,3.1-25.1
		c-1.5-6.4-4.7-12.4-10-18.4c4-1.8,7.7-4.6,10.3-9c4.1-7,3.4-14.6,0.8-22.1c3-2.7,5.3-6.2,6.8-10.4c2.3-6.4,2.3-13.3,2.3-19V189h7.3
		c3.1,0,6.9,0,11.3-0.1l3,6.9l7.7-2.8c-0.1,1-0.2,2-0.3,3.2l-6.2,58.4l31.9-49.3c6.7-10.3,9.9-13.4,11.2-14.4c1.1,0.5,3.9,2,9.6,7.2
		l42.3,38.1l-11-29.7l25.8,19.5l-20.3-40.7c1.7-0.3,3.3-0.8,4.8-1.4c3.6-1.5,6.5-3.7,8.9-6.3c4.4,3.1,9.3,5.1,14.9,5.1
		c6.5,0,11.9-2.6,16.4-6.5c1.5,2.3,3.1,4.2,4.5,6l5.1,6.2l7.9-1.3c0.5-0.1,0.9-0.2,1.4-0.2c0.4,1.1,0.8,2.6,1.3,4.6l10.9,47.9
		l10.6-30.6l16.3,63.1l7.3-68.4l10.5,13.6L502,188l0.3,0l0.4-0.1c5-0.8,9.5-2.4,13.4-4.6c9.2,2.1,17.3,3,25,3
		c3.6,0,7.3-0.2,10.7-0.7c10.5-0.8,24-3.8,34.1-17.3c5.1,4.3,10.4,6.8,16.5,6.8C609.2,175.1,614.3,172.1,618.2,167.7 M1088.7,219.5
		c1.9,7.8,6.3,16.2,15,24.7c-2,2.7-3.4,5.5-4.4,8.2c-0.2,0.7-0.4,1.3-0.6,2l-14.9-7L1088.7,219.5 M584.3,631.8l10.9,5.2l-3.8,0h-0.1
		c-2.2,0-5.4,0-7.5-0.3C583.7,635.7,583.8,634.1,584.3,631.8 M616.7,133.3c-3.7,19.6-8.3,27.8-14.2,27.8c-5.4,0-11.9-6.9-19.7-18.1
		c-6.8,23.6-19.4,27.9-32.3,28.8c-3.1,0.4-6.2,0.6-9.3,0.6c-9.1,0-18.3-1.6-28.1-4.2c-3.5,3.5-7.9,5.2-12.7,6
		c-4.9,0.6-10.1,0.2-11.8,9.5c-3.6-4.6-6.5-7.4-8.8-7.4c-3.1,0-5.2,5-6.6,17.6c-3.5-13.6-6.4-20.6-9.4-20.6c-2.6,0-5.4,5-8.9,15.2
		c-3-13.3-7.2-16-12-16c-2.1,0-4.3,0.5-6.6,0.9c-4.1-5-8.8-11.7-12.6-25.1c-6.8,13.9-12.8,20.5-19.1,20.5c-5.8,0-11.8-5.6-19-16.4
		c-2.2,11.2-5.7,16.9-10.2,18.8c-1.3,0.5-2.6,0.7-4,0.7c-3.4,0-6.9-1.4-9.2-2.7c-5.7,0.9-9.1,1.9-5.1,10c-5-3.8-8.7-6.2-10.6-6.2
		c-2.5,0-2.1,4.2,1.9,14.9c-8-7.2-13.9-11-19.3-11c-7.2,0-13.5,6.8-22.7,21c1.7-16.5-1.1-21.2-6.5-21.2c-2.1,0-4.5,0.7-7.3,1.7
		c-1.3-2.9-4.9-3.3-8.6-3.3c-0.8,0-1.5,0-2.3,0c-4.4,0.1-8.1,0.1-11.1,0.1c-6.1,0-9.3,0-9.3,0c-6.6,0-12,5.4-12,12
		c0,0,0,12.6,0,33.5c0,9.7,0,21.2-11.6,21.2c-0.9,0-1.8-0.1-2.9-0.2c10.6,18.8,12.2,28.5-9.9,28.5c-5.9,0-13.4-0.7-22.8-2.1
		c44,25.2,44.8,38.7,27.2,64.4c0.9-0.1,1.8-0.1,2.6-0.1c13.8,0,12.1,10.2,8.3,19.3c-4,9.6-10.2,18-19.7,25.1
		c-9.5,7.2-22.3,13.1-39.3,17.9c17,9.3,29.8,17.5,35.7,25.3c6.2,4.4,10.7,8.6,15.3,8.7c-1.1,5.7-2.2,9.8-1.1,9.8
		c0.6,0,1.9-1.3,4.3-4.3c-3.7,16.9-0.1,22.2,29.6,22.2c1.9,0,3.8,0,5.9-0.1c-31.5,11.8-32.3,17.9-7,34.2c-3.9-0.4-7.2-0.6-10.1-0.6
		c-17.9,0-19,7-17.4,18.2c-6.2,3.5-8.9,12.5-12,22.5c8.4-16.2,14.3-26.2,23.6-26.2c0.4,0,0.7,0,1.1,0c-0.9-3.7-1.2-5.4-1-5.4
		c0.2,0,1.2,3,2.2,8.2c-1.4,6.6-2.8,20.2-5.1,38.7c2-6.4,3.3-9,4.2-9c2.3,0,2.3,16.2,4.7,31.5c3.5,3.7,9.3,6.6,19.4,6.6
		c4.3,0,9.4-0.5,15.4-1.8c-20,25.1-29.8,42.3-29.7,56.6c0.1,11.7,6.9,21.5,20.4,33.8c-1.2-2.5-0.4-3.8,2.5-3.8
		c7.3,0,27.5,7.6,61.7,21.6c-28.2-19.3-29.9-26.4-9.7-26.4c11.6,0,30.4,2.3,55.6,6c-8-5.1-4.1-7.6,6.1-8.8
		c10.2-1.3,26.8-1.3,39.2-5.4c4.1,1,7.9,1.8,11.2,1.8c9.9,0,14.8-7,7.6-35.1c14.1,15.4,24.5,24.5,33.2,24.5
		c12.3,0,21.1-18.4,31.8-63c4.7,48.5,11.7,66,24.4,66c7.2,0,16.2-5.6,27.7-14.4c-5.7,24.3,7.1,24.4,20.1,24.4c0,0,0.1,0,0.1,0
		c13,0,26.2,0,39.4,0c13.2,0,26.5,0,17.1-4.5c9.8,1.2,18,2.1,24.3,2.1c17,0,21.5-6.3,12.2-29.4c19.8,18.1,31.2,25.9,45.7,25.9
		c10.9,0,23.5-4.4,42.8-12.2c-17.9,11.8-20.4,15.9-10.8,15.9c5.1,0,13.7-1.2,25.2-2.9c-14,4.5-8.9,5.1,2.2,5.1c1.5,0,3.1,0,4.8,0
		c-3.7,2.1-1.9,4.1,0.8,8.1c6.9-2.6,18.4-4.4,28.8-5c2.6-0.1,5-0.2,7.5-0.2c17.7,0,33.8,3.9,59,13.4c-8.4-12.3-1.4-15.3,13.4-15.3
		c4.6,0,10.1,0.3,16,0.7c0.1-0.7,2.1-1.1,4.8-1.1c3.6,0,8.4,0.7,12.1,2.3c6.3,2.8,8.9,8.5,4.2,19.9c18.5-9.2,32.2-14.7,44.8-14.7
		c18.4,0,34.2,11.8,58.8,40.7c-8.5-34.2-4.8-44.4,7.6-44.4c5.3,0,12.2,1.9,20.3,4.5c-4.9-6.8-1.2-8.4,4.3-8.4c1.7,0,3.5,0.1,5.3,0.3
		c3.3-0.8,6.3-0.8,6.3-0.8c6.6,0,12-5.4,12-12c0,0,0-6.4,0-17.7s0-27.5,18.2-38.2c-6.1-6.2-10.1-11.5-12.8-15.1
		c0.7-5.2,2.5-8.9-0.4-8.9c-0.2,0-0.5,0-0.8,0.1c11.3-5.2,19.7-8.2,26.8-8.2c3.3,0,6.3,0.6,9.1,2c-7.5-11.4-16.3-15.5-38-23.1
		c13-0.7,13.1-4.8,9.2-13.6c11.4,0,18.8-4.8,28.7-11.5c-0.2,0-0.5,0-0.7,0c-14.6,0-23.4-2.5-27.4-6c-4.2-3.6-3.5-8.2,0.2-13.6
		c-4.3-3.6,3.5-10.5,19.1-18c-21.4-9.4-11.6-20.9,8.2-30.7c-39.5-18.1-39.5-28.9,1.6-45.7c-33-3.6-25-13.2-6.4-22.6
		c-18.6-6.4-26.7-12.7-26.9-18.9c-0.1-3.1,1.7-6.3,5.4-9.5c3.7-3.3,9.4-6.6,17-7.7c-8.8-3.7-13.6-6.7-17.6-6.7c-1.6,0-3,0.5-4.4,1.5
		c3.3-7.6,6.4-12.2,8.2-12.2c1,0,1.7,1.4,1.8,4.6c-0.2-16.4-4.8-19.5-36.2-22.3c25.2-3.2,23.6-6.2,1.7-17.4
		c6.6,1.6,11.3,2.5,14.3,2.5c6.6,0,5.3-4-0.1-12.2c4.3,2,7.5,3,9.9,3c4.6,0,6.7-3.3,8.3-9c-0.7,0.3-1.3,0.5-1.8,0.5
		c-2.7,0-3.5-3.5-2.3-7.2c1.5-4.4,6-9.1,12.1-13.7c-24.1-16.5-24.1-30.8-22.9-41.2c-1.2-8.9-1.3-14.4-0.8-14.4c0,0,0.1,0,0.1,0.1
		c-0.6-3.7-1.8-6.6-1.6-6.6c0,0,0,0,0,0c-2.3-2.3-4.1-3.8-5.1-3.8c-1,0-0.9,1.8,1,6.2c-2.4-2.9-4.7-4.9-6.9-4.9
		c-4.2,0-8.2,7.1-11.8,27.6c-6.9-18.3-12.2-25.9-18.8-25.9c-4.7,0-10.1,3.9-17.3,10.6c2.4-20.3-5.3-24.7-14-32.8
		c-7.6,5.3-16.5,9.1-25.4,11.2c-5.6,1.3-11.3,2-17.2,2c-12.8,0-26.4-3.1-41.8-8.7c-3.2,8.6-9.6,11.2-16.7,11.2c-3,0-6.2-0.5-9.4-1.1
		c-10.6-2.2-21-6.7-30.3-15.7c-8.1,8.5-15.1,13-21.9,13c-7.5,0-14.8-5.5-23-17c-4.5,10.9-9.9,16.2-16.1,18.1
		c-2.1,0.6-4.3,0.9-6.5,0.9c-4.3,0-8.4-0.8-11.8-1.2c-5.6,0.4-9.3,2-5.3,15.6c-4.5-4.5-7.9-7.3-10.2-7.3c-3.9,0-4.5,8.1-1.3,30
		c-7.8-17.8-13.2-27-18.6-27c-5.5,0-10.9,9.4-18.8,28.8c2.6-32.9-0.6-41.5-9.1-41.5c-2.3,0-5,0.7-8.1,1.6c1.5-11.3-5-15.6-11.7-21.2
		c-4.9,14.4-10.8,20.6-18.2,20.6c-5.5,0-11.8-3.5-18.9-9.6c-1,1.9-2.4,2.7-3.9,2.7c-4.3,0-10.1-6.7-14.1-17.2
		c-11.1,13-19.5,20.1-26.9,20.1C632.4,166.4,625,156.1,616.7,133.3L616.7,133.3z M1099.5,181.1
		C1099.5,181.1,1099.5,181.1,1099.5,181.1C1099.5,181.1,1099.5,181.1,1099.5,181.1L1099.5,181.1z M263.4,655.9
		c-1.8,0,13,11.9,44.8,36.8c-13.2-11.7-21.9-20.2-26.1-25.5C270.7,659.7,264.4,655.9,263.4,655.9L263.4,655.9z M279.8,663.6
		c0.5,1,1.2,2.1,2.3,3.5c2.3,1.5,4.8,3.1,7.5,4.9C286,669.1,282.7,666.3,279.8,663.6L279.8,663.6z"/>
</g>
</svg>
